<?xml version="1.0" standalone="no"?>
<!DOCTYPE svg PUBLIC "-//W3C//DTD SVG 20010904//EN"
 "http://www.w3.org/TR/2001/REC-SVG-20010904/DTD/svg10.dtd">
<svg version="1.0" xmlns="http://www.w3.org/2000/svg"
 width="720.000000pt" height="720.000000pt" viewBox="0 0 720.000000 720.000000"
 preserveAspectRatio="xMidYMid meet">
<metadata>
Created by potrace 1.14, written by Peter Selinger 2001-2017
</metadata>
<g transform="translate(0.000000,720.000000) scale(0.100000,-0.100000)"
fill="#000000" stroke="none">
<path d="M0 5920 l0 -1280 27 2 c35 2 202 -49 224 -68 9 -8 25 -12 35 -8 14 4
16 3 5 -4 -10 -7 -5 -12 20 -20 19 -5 48 -10 64 -11 45 -2 239 -42 249 -51 5
-5 15 -6 22 -3 8 3 14 0 14 -6 0 -6 12 -11 26 -11 30 0 64 -16 64 -31 0 -8
-23 -9 -72 -3 -102 10 -128 7 -171 -23 -45 -31 -73 -68 -91 -119 -11 -33 -10
-42 6 -75 10 -21 25 -42 34 -47 9 -5 17 -29 21 -65 5 -49 4 -57 -10 -52 -24
10 -28 -8 -17 -86 7 -46 7 -76 1 -82 -11 -11 -3 -107 10 -122 5 -5 9 -23 9
-41 0 -17 9 -43 21 -58 11 -15 18 -33 15 -41 -7 -18 10 -20 17 -2 9 20 25 -10
20 -37 -3 -16 3 -26 22 -36 23 -12 24 -16 11 -26 -26 -19 -18 -52 21 -95 46
-50 49 -57 45 -114 -3 -34 -8 -45 -19 -43 -19 4 -41 -51 -25 -61 16 -10 33
-84 22 -95 -7 -7 -10 0 -10 19 0 17 -5 37 -10 45 -8 13 -11 12 -24 -5 -20 -26
-20 -26 9 -81 17 -32 22 -51 15 -58 -18 -18 -11 -28 14 -22 15 4 26 1 29 -7 3
-9 8 -9 21 2 9 8 15 20 12 28 -3 7 1 13 9 13 9 0 15 10 15 25 0 18 -5 25 -20
25 -15 0 -20 -7 -20 -25 0 -18 -5 -25 -20 -25 -25 0 -25 11 -1 39 16 19 27 22
70 18 63 -5 91 -28 91 -73 0 -24 5 -34 21 -39 33 -11 16 -30 -25 -27 -20 2
-36 -1 -36 -6 0 -4 -10 -19 -22 -32 -12 -13 -17 -25 -11 -27 5 -2 19 -10 29
-18 24 -17 8 -38 -30 -37 -31 0 -51 -21 -42 -44 5 -13 15 -15 49 -11 88 13
122 19 137 27 21 11 97 -4 119 -24 9 -9 33 -16 52 -16 19 0 41 -5 49 -10 13
-9 12 -12 -5 -22 -19 -11 -19 -11 0 -19 11 -4 42 -8 68 -8 44 -1 48 -3 47 -23
-5 -58 -5 -58 63 -51 34 3 67 9 72 13 6 4 23 10 39 14 16 4 47 16 68 26 21 10
52 21 67 25 16 3 37 15 47 26 9 10 23 19 30 19 7 0 14 4 16 8 6 15 117 92 132
92 8 0 27 -13 43 -30 15 -16 32 -30 38 -30 5 0 25 -22 42 -48 18 -26 48 -63
66 -82 19 -19 36 -40 38 -47 7 -19 121 -143 132 -143 5 0 15 -6 21 -14 15 -19
101 -65 152 -81 23 -7 58 -11 78 -10 20 2 36 -1 36 -7 0 -17 119 2 196 32 79
30 148 74 193 123 26 27 37 32 84 32 68 1 105 26 137 94 18 36 31 50 46 51 45
0 104 75 104 132 0 11 5 16 11 13 6 -4 7 -19 4 -36 -4 -17 -2 -29 4 -29 5 0
11 26 13 58 3 51 5 57 26 60 13 2 21 9 19 15 -5 16 -177 22 -177 6 0 -6 6 -9
14 -6 25 10 26 -5 1 -38 -26 -33 -32 -69 -15 -80 18 -11 11 -35 -10 -35 -26 0
-110 -20 -132 -31 -10 -5 -66 -9 -125 -9 -123 0 -127 0 -167 -21 l-29 -16 32
-6 c20 -4 31 -13 31 -23 0 -13 3 -14 14 -5 10 9 17 6 30 -13 20 -31 21 -56 2
-56 -8 0 -22 -3 -32 -7 -14 -5 -16 -2 -12 15 8 29 -8 38 -22 12 -6 -11 -19
-20 -30 -20 -10 0 -22 -4 -25 -10 -3 -5 -31 -10 -61 -10 -48 0 -54 -2 -54 -21
0 -13 11 -25 34 -34 29 -13 41 -12 90 0 54 14 86 12 86 -6 0 -5 -11 -9 -24 -9
-14 0 -28 -5 -32 -12 -4 -7 -3 -8 4 -4 19 11 34 -3 20 -18 -16 -15 -83 -30
-275 -60 -25 -4 -38 0 -52 15 -13 14 -26 19 -40 14 -12 -4 -21 -2 -21 4 0 6
-14 11 -31 11 -27 0 -30 2 -19 16 11 13 10 16 -8 21 -12 3 -22 12 -22 19 0 19
-17 18 -28 -2 -6 -12 -11 -6 -22 26 -10 30 -18 39 -29 35 -8 -3 -13 -3 -9 0 7
7 -58 75 -71 75 -5 0 -6 12 -3 26 2 14 -2 37 -9 52 -19 37 -74 88 -91 84 -9
-2 -10 -1 -1 5 17 12 4 58 -20 68 -16 7 -24 22 -28 55 l-6 45 -3 -40 c-3 -40
-3 -40 -7 -6 -3 22 -11 35 -23 38 -18 5 -46 83 -29 83 16 0 -25 74 -63 115
-21 22 -38 43 -38 47 0 4 -11 23 -24 42 -31 47 -41 124 -21 172 20 48 19 104
-2 134 -20 28 -23 122 -5 128 18 6 15 27 -6 45 -24 22 -44 21 -85 -3 -61 -36
-187 -20 -204 27 -4 10 -13 23 -20 28 -13 10 -47 92 -63 150 -4 17 -13 43 -19
58 -6 16 -11 39 -11 53 0 31 37 138 49 142 5 2 8 11 6 20 -1 9 0 11 2 5 3 -7
8 -13 13 -13 13 0 101 101 117 135 8 17 29 37 46 45 42 18 135 17 171 -3 39
-21 85 -103 79 -142 -4 -28 -2 -30 28 -32 39 -3 42 -6 58 -63 7 -25 17 -52 22
-60 9 -16 30 -61 31 -70 1 -3 8 -10 16 -16 11 -8 12 -15 5 -29 -6 -10 -7 -28
-2 -44 5 -14 11 -43 14 -63 6 -37 26 -51 40 -28 4 7 24 8 51 4 25 -3 50 -2 57
4 6 5 28 13 47 17 35 8 106 51 142 87 10 10 23 16 28 13 5 -3 16 10 25 28 14
31 19 33 65 34 31 0 60 8 77 19 16 11 35 22 43 25 8 3 15 12 15 20 0 9 11 14
31 15 16 0 36 4 44 9 8 5 26 8 38 6 14 -1 32 6 43 18 11 12 32 22 47 22 51 2
57 4 55 16 -2 7 4 10 12 7 11 -4 15 1 15 16 0 19 3 20 15 10 11 -9 17 -9 27 2
7 7 13 19 14 26 1 6 2 19 3 27 1 15 31 22 31 7 0 -5 24 -14 53 -22 28 -7 60
-18 69 -24 13 -8 21 -7 30 2 6 6 23 12 37 12 16 0 43 16 70 40 32 29 48 37 57
29 6 -5 14 -6 16 -1 1 5 27 12 56 15 l54 6 -7 -26 c-5 -21 -4 -24 7 -16 18 14
50 25 44 15 -2 -4 -1 -14 4 -22 4 -7 4 -24 -1 -38 -5 -14 -6 -28 -2 -31 4 -3
8 -13 8 -21 0 -8 7 -14 16 -14 11 1 14 -5 11 -21 -3 -19 0 -22 30 -20 27 2 39
-4 70 -38 30 -33 35 -44 27 -59 -11 -21 3 -48 25 -48 10 0 10 -13 3 -52 -11
-64 -25 -95 -54 -128 -13 -14 -23 -28 -23 -32 0 -22 -115 -32 -135 -11 -23 23
-159 23 -208 0 -21 -10 -46 -15 -57 -12 -15 5 -18 3 -14 -10 4 -9 -1 -21 -11
-29 -18 -13 -13 -36 7 -36 6 0 20 -7 30 -16 14 -13 21 -14 32 -5 11 9 15 7 19
-9 3 -12 0 -20 -8 -20 -7 0 -15 -10 -18 -22 -5 -17 -9 -19 -20 -10 -20 17 -42
-8 -24 -28 10 -10 6 -11 -23 -6 -19 4 -36 11 -38 16 -2 6 -18 10 -35 10 -18 0
-40 7 -50 15 -11 7 -25 11 -33 8 -8 -3 -14 0 -14 6 0 6 -9 11 -20 11 -11 0
-20 4 -20 8 0 17 -78 34 -100 22 -28 -15 -25 -24 15 -43 19 -9 35 -21 35 -27
0 -5 8 -19 18 -29 9 -11 22 -26 29 -34 7 -9 23 -23 35 -32 16 -12 19 -19 10
-22 -10 -4 -10 -8 -1 -19 8 -10 15 -11 25 -3 9 8 18 5 34 -11 23 -23 18 -42
-8 -38 -10 2 -17 -4 -18 -12 -1 -30 -16 -60 -30 -60 -8 0 -14 -6 -14 -13 0
-22 58 -19 65 3 3 11 15 22 26 25 11 4 32 18 46 31 15 14 53 41 85 60 32 20
58 39 58 43 0 4 22 30 49 59 56 59 104 80 170 72 40 -4 44 -8 47 -34 2 -16 -1
-38 -7 -48 -5 -10 -6 -24 -2 -31 4 -6 9 -50 10 -97 2 -47 7 -119 12 -160 12
-109 7 -251 -9 -277 -8 -12 -11 -25 -7 -30 11 -10 84 75 90 103 2 12 0 98 -5
191 -10 182 -5 265 18 284 8 6 14 22 14 35 0 13 5 24 10 24 6 0 10 -11 10 -25
0 -18 4 -23 15 -19 17 7 20 45 4 61 -7 7 -6 12 5 16 20 8 40 -18 33 -43 -3
-11 -1 -20 4 -20 5 0 9 4 9 9 0 6 16 7 35 4 28 -4 35 -2 35 10 0 17 -35 41
-48 33 -5 -3 -6 9 -4 26 3 20 7 26 13 17 12 -20 40 8 34 35 -3 11 -2 26 2 31
11 14 71 55 80 55 12 0 54 41 97 93 28 34 36 53 36 84 0 42 22 73 53 73 9 0
17 7 17 16 0 23 41 53 72 54 17 0 31 8 38 21 9 17 18 19 48 14 59 -10 143 -11
148 -3 3 4 18 8 35 8 16 0 29 5 29 10 0 6 9 10 20 10 11 0 27 8 36 19 10 11
24 16 35 14 14 -4 19 0 19 16 0 11 5 21 12 21 6 0 8 3 5 7 -8 7 21 43 34 43 4
0 10 -8 12 -17 4 -17 5 -17 6 0 0 9 5 17 11 17 5 0 7 7 4 15 -4 10 3 18 21 25
14 5 24 14 21 19 -11 17 -63 4 -109 -28 -29 -19 -47 -27 -47 -19 0 17 11 31
35 44 12 7 21 24 23 43 2 17 8 31 14 31 6 0 8 9 5 21 -3 12 0 22 9 26 8 3 14
16 14 29 0 15 6 24 16 24 10 0 14 6 11 14 -7 19 54 28 94 14 22 -8 33 -8 38 0
4 7 43 11 101 10 79 0 133 9 168 28 2 1 -1 11 -7 23 -11 20 -11 20 -48 -4 -43
-30 -56 -31 -48 -5 6 19 5 19 -22 3 -22 -12 -41 -14 -86 -9 -31 4 -57 12 -57
17 0 5 -5 9 -11 9 -5 0 -8 -4 -4 -9 3 -5 1 -12 -4 -15 -12 -8 -42 4 -36 14 3
5 -4 11 -15 15 -29 9 -25 23 5 17 15 -2 25 0 25 7 0 6 -5 11 -11 11 -5 0 -8 4
-4 9 3 6 27 9 53 9 26 -1 62 2 80 6 17 4 32 4 32 -1 0 -5 18 -10 40 -11 23 -2
40 2 40 8 0 5 5 10 10 10 6 0 10 -9 10 -20 0 -21 15 -27 25 -9 5 7 13 5 24 -5
16 -15 21 -13 59 23 52 50 46 53 -118 47 -123 -3 -158 2 -148 20 3 5 -4 18
-15 28 -15 14 -19 15 -14 4 3 -9 -1 -25 -9 -36 -12 -18 -11 -20 8 -25 30 -8
22 -13 -34 -20 -43 -6 -48 -5 -48 13 0 11 -4 20 -10 20 -5 0 -10 6 -10 14 0 8
-6 17 -12 19 -10 4 -10 6 0 6 20 1 14 17 -12 29 -35 16 -40 54 -14 96 13 19
29 35 36 36 6 0 12 9 12 20 0 13 -5 18 -15 14 -18 -7 -19 5 -1 29 8 10 20 15
30 11 23 -9 20 8 -6 31 -13 10 -23 17 -23 15 0 -2 -11 -1 -23 2 -19 5 -22 11
-17 28 5 15 -1 27 -24 47 -17 15 -31 36 -31 47 0 36 -73 139 -157 223 -29 29
-53 56 -53 60 0 13 -113 128 -134 136 -14 6 -16 10 -6 21 8 11 9 20 0 35 -8
17 -8 21 3 21 8 0 21 7 28 16 12 15 10 16 -20 9 -29 -6 -33 -5 -28 10 4 9 7
19 7 21 0 2 9 4 19 4 11 0 32 16 47 35 14 19 33 35 40 35 10 0 8 11 -8 45 -12
25 -26 45 -30 45 -4 0 -8 6 -8 14 0 8 -6 16 -14 19 -8 3 -16 16 -18 29 -3 21
-8 23 -57 22 -33 -1 -59 -7 -65 -15 -18 -23 -64 -39 -109 -39 -54 0 -77 17
-202 155 -11 12 -31 26 -45 30 -24 8 -24 8 -5 16 15 6 16 8 4 8 -9 1 -22 8
-29 16 -7 9 -15 13 -18 10 -6 -6 -62 45 -62 56 0 10 -45 59 -54 59 -3 0 -6 -7
-6 -15 0 -19 -19 -19 -26 0 -4 8 -10 12 -16 9 -5 -3 -8 2 -6 12 2 13 -6 20
-32 26 -19 5 -42 18 -50 28 -8 10 -24 20 -34 22 -22 4 -60 64 -46 73 6 4 10
15 10 26 0 13 -7 19 -24 19 -24 0 -24 0 -9 40 14 35 19 39 47 37 29 -2 31 0
28 31 -4 35 19 46 36 16 12 -22 34 -13 39 15 2 17 -1 21 -14 17 -35 -11 -47 9
-44 71 1 32 7 62 12 67 5 6 9 29 9 53 0 32 4 43 15 43 8 0 15 -9 15 -20 0 -25
45 -70 71 -70 17 0 19 4 13 23 -9 30 -37 66 -50 67 -6 0 -11 10 -10 23 1 19 7
22 54 25 50 3 76 22 29 22 -20 0 -22 4 -19 40 l4 40 -37 0 -38 0 7 65 c4 36 9
72 12 80 4 9 0 15 -9 15 -8 0 -17 -13 -21 -31 -5 -27 -8 -30 -21 -19 -8 7 -15
22 -16 34 0 20 -1 20 -10 -2 -5 -15 -5 -30 1 -42 6 -10 10 -38 9 -62 l-1 -43
-13 35 -13 35 -7 -32 c-10 -43 -22 -42 -31 3 -5 28 -3 39 10 46 9 5 16 18 16
30 0 16 -4 19 -22 14 -13 -3 -40 -6 -60 -6 -27 0 -38 -4 -38 -15 0 -8 -6 -12
-15 -10 -49 15 -49 16 -37 24 9 6 7 12 -8 26 -17 15 -20 16 -20 3 0 -12 -18
-17 -77 -24 -143 -14 -147 -14 -157 13 -4 11 -2 13 9 10 8 -4 17 -2 20 3 4 6
-3 10 -14 10 -12 0 -21 6 -21 14 0 9 -20 16 -62 21 -84 11 -117 10 -223 -5
-69 -9 -97 -9 -122 0 -40 14 -57 5 -49 -26 5 -17 2 -26 -9 -30 -8 -4 -15 -17
-15 -30 0 -20 -5 -24 -33 -24 -32 0 -33 1 -29 36 5 45 -7 54 -73 54 -27 0 -56
4 -63 8 -21 14 24 45 76 53 l47 8 -45 -4 c-66 -5 -113 -16 -134 -31 -16 -11
-23 -10 -47 8 -24 18 -33 20 -51 10 -31 -15 -62 -23 -104 -27 -19 -2 -41 -9
-50 -16 -12 -10 -18 -8 -35 9 -23 26 -64 29 -73 6 -5 -13 -9 -14 -21 -4 -17
14 -72 4 -93 -16 -7 -8 -21 -14 -30 -13 -11 0 -8 4 8 10 18 7 21 12 11 18 -18
11 -91 -8 -115 -31 -20 -18 -72 -26 -62 -9 8 13 -54 20 -89 10 -38 -11 -85
-12 -85 -1 0 5 -7 9 -15 9 -8 0 -15 -7 -15 -15 0 -10 -5 -12 -17 -7 -41 18
-84 17 -128 -4 -25 -12 -58 -21 -75 -21 -28 0 -30 2 -20 20 10 18 8 20 -19 20
-42 0 -60 -9 -55 -28 3 -9 -1 -7 -7 6 -19 35 -44 28 -58 -18 -6 -22 -16 -40
-21 -40 -14 0 -35 73 -21 78 6 2 8 8 5 13 -3 6 -11 5 -20 -2 -12 -9 -27 -9
-72 1 -31 8 -70 15 -87 16 -16 1 -54 9 -82 17 -45 13 -53 13 -53 1 0 -8 -4
-14 -10 -14 -20 0 -10 -99 19 -180 28 -77 31 -110 10 -110 -5 0 -9 -6 -9 -13
0 -7 -13 -26 -30 -42 -16 -16 -30 -34 -30 -41 0 -26 29 -21 64 12 38 36 56 43
56 20 0 -7 7 -19 15 -26 18 -15 44 -72 70 -157 11 -35 23 -63 27 -63 5 0 8 -7
8 -15 0 -8 4 -23 9 -33 4 -9 16 -35 26 -57 11 -22 34 -56 52 -75 83 -89 99
-109 117 -141 11 -19 22 -36 26 -39 3 -3 17 -23 29 -45 37 -63 74 -118 94
-137 9 -10 17 -21 17 -26 0 -10 -56 -62 -68 -62 -19 0 -23 -32 -5 -46 17 -12
16 -13 -7 -22 l-25 -10 25 -11 25 -10 -23 -7 c-16 -5 -21 -12 -17 -25 5 -13 1
-19 -10 -19 -8 0 -21 -11 -27 -25 -9 -20 -8 -28 6 -44 16 -18 16 -20 -5 -35
-22 -15 -22 -16 -3 -37 17 -19 18 -22 2 -33 -12 -9 -14 -16 -7 -23 8 -8 7 -13
0 -17 -6 -4 -11 -16 -11 -27 0 -50 -41 -88 -95 -89 -38 -1 -107 -41 -94 -54 3
-3 33 -8 67 -11 94 -8 139 -32 113 -58 -6 -6 -11 -19 -11 -29 0 -21 -21 -23
-58 -4 -37 18 -208 76 -227 76 -8 0 -15 4 -15 9 0 9 -25 12 -183 27 -115 11
-107 -29 -114 582 l-6 519 24 34 c13 19 28 39 34 45 5 6 19 23 30 38 11 16 26
34 33 41 6 8 12 16 12 19 0 3 9 15 20 26 18 18 18 50 0 50 -4 0 -25 -18 -46
-41 -72 -74 -87 -89 -94 -89 -12 0 -20 144 -20 367 l0 213 -165 0 -165 0 0
-1280z m2300 1160 c0 -33 -3 -40 -20 -40 -17 0 -20 7 -20 40 0 33 3 40 20 40
17 0 20 -7 20 -40z m-300 11 c0 -12 -28 -22 -34 -12 -3 5 -3 11 1 15 9 9 33 7
33 -3z m140 -17 c0 -9 -11 -14 -30 -14 -36 0 -39 13 -7 27 25 12 37 8 37 -13z
m-1070 -24 c0 -6 -8 -13 -17 -16 -10 -3 -26 -10 -35 -15 -25 -13 -38 -11 -38
6 0 8 -6 16 -12 16 -13 2 52 15 85 18 9 0 17 -4 17 -9z m-320 -22 c0 -6 -6 -5
-15 2 -8 7 -15 14 -15 16 0 2 7 1 15 -2 8 -4 15 -11 15 -16z m630 18 c0 -3 -4
-8 -10 -11 -5 -3 -10 -1 -10 4 0 6 5 11 10 11 6 0 10 -2 10 -4z m1888 -34 c-5
-18 -6 -51 -3 -73 6 -33 3 -42 -21 -64 -29 -26 -44 -32 -44 -15 0 6 -10 15
-22 20 -18 7 -19 9 -5 9 9 1 17 6 17 11 0 10 -21 13 -70 11 -14 -1 -32 3 -40
9 -23 15 5 29 60 31 25 1 37 3 28 6 -13 3 -19 16 -20 41 l-1 37 -4 -37 c-4
-36 -17 -50 -25 -27 -3 8 -14 8 -41 1 -22 -6 -37 -7 -37 -1 0 5 -11 9 -24 9
-14 0 -27 4 -30 9 -9 14 56 22 94 11 19 -6 36 -10 37 -10 2 0 3 11 3 24 0 23
-2 24 -32 15 -43 -12 -48 -11 -48 4 0 11 26 14 119 14 l118 0 -9 -35z m-2471
-4 c-3 -7 -5 -2 -5 12 0 14 2 19 5 13 2 -7 2 -19 0 -25z m623 28 c0 -11 -19
-15 -25 -6 -3 5 1 10 9 10 9 0 16 -2 16 -4z m1920 -106 c13 -9 13 -11 0 -20
-27 -17 -60 -12 -60 10 0 22 33 27 60 10z m-2613 -52 c-3 -7 -5 -2 -5 12 0 14
2 19 5 13 2 -7 2 -19 0 -25z m-52 12 c3 -5 1 -10 -4 -10 -6 0 -11 5 -11 10 0
6 2 10 4 10 3 0 8 -4 11 -10z m170 -10 c-3 -5 -10 -10 -16 -10 -5 0 -9 5 -9
10 0 6 7 10 16 10 8 0 12 -4 9 -10z m2157 -6 c5 -3 8 -10 8 -16 0 -7 -16 -8
-47 -3 -58 8 -70 15 -52 26 13 9 74 3 91 -7z m198 -69 c0 -21 -5 -25 -28 -25
-15 0 -33 5 -40 12 -9 9 -11 0 -10 -36 0 -26 -2 -50 -6 -53 -3 -4 -6 6 -6 20
0 15 -9 36 -21 48 -20 20 -20 21 -2 34 10 8 25 12 33 10 12 -4 41 2 78 14 1 1
2 -10 2 -24z m80 8 c0 -9 17 -34 37 -55 l37 -38 -26 0 c-14 0 -29 -7 -32 -16
-3 -9 -15 -14 -28 -12 -30 4 -36 28 -7 28 21 0 20 3 -16 40 -26 27 -34 40 -23
40 8 0 21 7 28 15 17 20 30 19 30 -2z m-256 -9 c23 -9 20 -23 -4 -17 -11 3
-20 9 -20 14 0 11 3 11 24 3z m-57 -80 c-3 -3 -15 -4 -26 -2 -21 3 -21 4 -4
27 l17 25 9 -22 c6 -12 8 -25 4 -28z m69 -1 c-11 -11 -19 6 -11 24 8 17 8 17
12 0 3 -10 2 -21 -1 -24z m-56 -38 c0 -8 -4 -17 -10 -20 -6 -4 -10 5 -10 20 0
15 4 24 10 20 6 -3 10 -12 10 -20z m-2138 -32 c7 -9 7 -13 0 -13 -12 0 -22 25
-21 48 1 13 3 12 6 -3 3 -11 10 -26 15 -32z m50 32 c0 -5 -5 -11 -11 -13 -6
-2 -11 4 -11 13 0 9 5 15 11 13 6 -2 11 -8 11 -13z m2148 -5 c0 -22 -1 -23
-24 -14 -12 5 -13 9 -3 20 17 19 27 17 27 -6z m-130 -25 c0 -8 -4 -15 -10 -15
-5 0 -7 7 -4 15 4 8 8 15 10 15 2 0 4 -7 4 -15z m-27 -25 c7 -6 21 -17 32 -24
15 -11 17 -17 7 -28 -14 -17 -6 -28 20 -28 10 0 18 -7 18 -15 0 -9 -9 -15 -25
-15 -14 0 -25 5 -25 10 0 6 -7 10 -15 10 -8 0 -15 -4 -15 -10 0 -5 7 -10 15
-10 8 0 15 -4 15 -10 0 -10 -13 -14 -36 -11 -6 1 -19 -8 -29 -19 -12 -14 -22
-17 -30 -10 -8 7 -16 2 -25 -15 -19 -36 -34 -31 -27 10 4 22 2 35 -5 35 -6 0
-8 3 -5 6 4 4 20 1 37 -6 28 -12 33 -11 56 11 20 19 22 24 10 31 -9 5 -24 3
-36 -4 -28 -18 -41 4 -27 43 13 33 30 33 35 1 4 -29 26 -28 42 3 11 20 11 27
0 40 -14 17 -5 20 13 5z m97 6 c0 -3 -4 -8 -10 -11 -5 -3 -10 -1 -10 4 0 6 5
11 10 11 6 0 10 -2 10 -4z m-230 -40 c0 -8 -4 -17 -9 -20 -10 -7 -23 19 -14
28 11 11 23 6 23 -8z m-1710 -26 c0 -5 -5 -10 -11 -10 -5 0 -7 5 -4 10 3 6 8
10 11 10 2 0 4 -4 4 -10z m3054 -979 c-6 -6 -24 19 -24 34 1 6 7 1 15 -9 8
-11 12 -22 9 -25z m-3702 -321 c2 -5 31 -13 65 -16 59 -6 125 -34 121 -51 0
-5 2 -16 7 -26 18 -41 -80 -89 -173 -85 l-54 2 29 26 c17 14 37 30 46 35 23
14 9 78 -18 84 -26 4 -62 41 -41 41 8 0 16 -4 18 -10z m-299 -129 c17 -6 17
-8 3 -20 -10 -8 -26 -11 -42 -7 -21 6 -24 9 -14 21 13 16 25 18 53 6z m-13
-66 c0 -8 -6 -15 -14 -15 -17 0 -28 14 -19 24 12 12 33 6 33 -9z m-5 -274 c3
-5 1 -13 -5 -16 -15 -9 -43 3 -35 15 8 13 32 13 40 1z m685 -151 c0 -5 -4 -10
-9 -10 -6 0 -13 5 -16 10 -3 6 1 10 9 10 9 0 16 -4 16 -10z m20 -55 c0 -8 -6
-15 -14 -15 -20 0 -29 17 -14 23 22 9 28 7 28 -8z m3362 -390 c0 -5 -5 -11
-11 -13 -6 -2 -11 4 -11 13 0 9 5 15 11 13 6 -2 11 -8 11 -13z m-72 -20 c0 -8
-4 -15 -10 -15 -5 0 -10 7 -10 15 0 8 5 15 10 15 6 0 10 -7 10 -15z m-2485
-491 c-23 -23 -32 -8 -9 17 10 11 20 16 22 10 2 -6 -4 -18 -13 -27z m2035
-144 c0 -5 -4 -10 -10 -10 -5 0 -10 5 -10 10 0 6 5 10 10 10 6 0 10 -4 10 -10z
m-2706 -415 c3 -8 1 -15 -4 -15 -6 0 -10 7 -10 15 0 8 2 15 4 15 2 0 6 -7 10
-15z m473 -101 c-3 -3 -12 -4 -19 -1 -8 3 -5 6 6 6 11 1 17 -2 13 -5z m-107
-76 c0 -6 -7 -7 -16 -4 -9 3 -20 6 -25 6 -6 0 -8 4 -5 9 8 12 46 2 46 -11z
m257 -4 c-3 -3 -12 -4 -19 -1 -8 3 -5 6 6 6 11 1 17 -2 13 -5z m-387 -204 c12
-8 11 -10 -7 -10 -13 0 -23 5 -23 10 0 13 11 13 30 0z m1016 -307 c-7 -7 -26
7 -26 19 0 6 6 6 15 -2 9 -7 13 -15 11 -17z"/>
<path d="M3209 7000 c-10 -34 -10 -46 0 -62 9 -15 10 -23 2 -31 -16 -16 -13
-27 7 -27 17 0 19 8 17 75 -1 41 -4 77 -7 81 -4 3 -12 -13 -19 -36z"/>
<path d="M3090 7185 c7 -8 19 -15 26 -15 8 0 11 6 8 15 -4 8 -15 15 -26 15
-17 0 -18 -3 -8 -15z"/>
<path d="M3542 7189 c2 -6 8 -10 13 -10 5 0 11 4 13 10 2 6 -4 11 -13 11 -9 0
-15 -5 -13 -11z"/>
<path d="M3673 7176 c7 -13 15 -22 19 -20 8 5 -13 44 -23 44 -4 0 -2 -11 4
-24z"/>
<path d="M3880 7191 c0 -5 6 -14 14 -20 7 -6 16 -26 20 -43 3 -17 9 -28 12
-25 11 11 -18 97 -32 97 -8 0 -14 -4 -14 -9z"/>
<path d="M4260 7160 c0 -22 -4 -40 -10 -40 -5 0 -10 5 -10 10 0 6 -18 10 -39
10 -22 0 -41 5 -44 13 -2 6 -8 8 -13 4 -5 -4 -4 -11 2 -15 6 -4 15 -46 19 -94
7 -86 6 -88 -15 -88 -19 0 -21 4 -16 28 3 15 8 52 11 82 5 54 5 54 -9 25 -9
-16 -15 -43 -16 -59 0 -25 -3 -28 -26 -22 -34 9 -53 28 -51 52 1 11 -4 19 -13
19 -9 0 -15 -9 -14 -22 1 -29 -26 -31 -33 -3 -6 23 -14 25 -32 8 -10 -11 -15
-10 -24 2 -7 9 -21 14 -31 12 -10 -2 -23 3 -28 12 -5 9 -13 14 -19 11 -5 -4
-9 -1 -9 4 0 19 -31 12 -49 -10 -17 -21 -19 -21 -43 -5 -23 15 -26 15 -32 1
-11 -29 -7 -52 14 -78 17 -21 18 -27 5 -37 -9 -8 -19 -8 -32 -1 -26 13 -56 -4
-33 -19 12 -8 13 -13 3 -30 -22 -34 -16 -50 17 -50 28 0 30 2 30 40 0 33 3 40
20 40 14 0 20 -7 20 -23 0 -13 9 -33 20 -45 11 -12 20 -35 20 -52 0 -17 9 -40
20 -52 l20 -22 -6 50 c-3 27 -7 54 -9 61 -2 7 3 25 11 40 16 28 16 28 10 -19
l-5 -46 39 -16 c22 -9 40 -20 40 -26 0 -5 13 -10 28 -10 21 0 32 -7 40 -25 19
-42 15 -55 -18 -55 -16 0 -30 5 -30 10 0 6 -20 10 -44 10 -26 0 -46 5 -49 13
-3 6 -6 0 -6 -15 -1 -27 0 -28 58 -28 32 0 86 -3 120 -6 49 -6 61 -10 61 -25
0 -15 -13 -18 -82 -23 -157 -12 -163 -13 -80 -14 75 -2 82 -4 82 -22 0 -11 4
-20 10 -20 5 0 15 9 22 20 13 21 48 28 48 10 0 -5 10 -10 23 -10 26 -1 57 -22
57 -39 0 -15 37 -5 61 15 14 12 18 12 33 -5 10 -11 15 -25 11 -30 -13 -23 28
-25 46 -3 19 25 49 29 49 8 0 -21 32 -30 42 -11 5 8 18 15 29 15 11 0 18 -4
15 -9 -10 -16 22 -33 56 -30 22 2 32 -1 30 -9 -3 -17 38 -15 44 3 9 23 33 18
44 -10 6 -16 14 -23 25 -19 8 3 15 1 15 -5 0 -13 -27 -15 -35 -1 -3 5 -12 7
-21 3 -12 -4 -11 -8 6 -20 19 -13 26 -13 47 -2 23 12 27 11 45 -14 11 -15 26
-27 34 -27 8 0 23 -9 34 -20 12 -12 25 -18 30 -15 6 4 10 -3 10 -14 0 -16 6
-21 24 -21 16 0 27 -7 31 -21 4 -11 18 -24 31 -29 14 -6 24 -18 24 -29 0 -13
9 -20 30 -24 27 -6 44 -37 20 -37 -5 0 -10 -9 -10 -20 0 -17 3 -19 19 -10 28
14 31 13 31 -14 0 -27 16 -37 45 -25 11 4 16 8 11 8 -4 1 -1 12 7 25 15 22 15
25 -3 41 -10 9 -16 24 -13 32 7 18 -43 62 -72 63 -11 1 -33 19 -50 40 -16 21
-38 39 -47 40 -22 0 -24 20 -3 20 22 0 23 49 2 62 -20 12 -3 17 39 11 39 -5
40 -6 36 -37 -3 -17 -9 -37 -14 -43 -8 -10 -5 -13 10 -13 12 0 25 -8 31 -17 5
-10 13 -14 18 -10 4 5 0 22 -10 39 -9 16 -15 34 -11 39 9 16 32 10 39 -10 5
-16 13 -28 53 -77 5 -5 15 -21 22 -33 10 -20 17 -22 58 -18 26 3 39 3 30 1
-19 -6 -25 -44 -8 -44 5 0 22 -13 37 -30 29 -33 63 -40 63 -12 1 16 1 16 11
-1 23 -39 64 -70 97 -73 54 -4 65 -24 14 -24 -23 0 -42 5 -42 11 0 5 -4 7 -10
4 -6 -4 -5 -13 2 -24 9 -15 20 -18 50 -14 30 5 38 2 38 -10 0 -8 -5 -17 -12
-19 -6 -2 -8 -10 -4 -16 5 -9 13 -9 26 -2 11 6 31 8 45 4 17 -4 25 -2 25 6 0
9 7 7 20 -5 31 -28 24 -35 -29 -35 -44 0 -49 -3 -55 -26 -4 -16 -13 -25 -24
-23 -29 3 -42 -1 -42 -11 0 -5 11 -10 24 -10 14 0 28 5 31 10 3 6 16 10 29 10
12 0 27 5 34 12 9 9 12 9 12 0 0 -7 -4 -12 -10 -12 -5 0 -10 -7 -10 -15 0 -8
-10 -19 -21 -26 -12 -6 -17 -14 -12 -18 6 -3 19 -22 29 -41 l19 -35 3 38 c3
29 7 37 23 37 16 0 19 5 14 20 -7 23 2 60 15 60 18 0 31 -39 20 -60 -6 -11 -7
-20 -3 -20 9 0 33 48 33 66 0 7 6 15 13 18 8 4 5 10 -10 22 -15 11 -23 27 -23
46 0 22 -6 31 -21 35 -16 4 -20 12 -16 29 2 14 -1 24 -7 24 -17 0 -38 39 -31
59 3 12 0 21 -10 25 -14 5 -13 9 4 28 30 31 26 48 -9 48 -28 0 -30 2 -30 40 0
22 -4 40 -10 40 -5 0 -10 9 -10 20 0 11 -4 20 -9 20 -13 0 -20 49 -13 90 5 33
6 34 13 10 4 -14 7 -42 8 -62 1 -35 3 -38 31 -38 19 0 33 7 40 20 9 17 8 20
-10 20 -25 0 -27 28 -2 46 25 19 35 17 72 -16 18 -16 28 -30 20 -30 -7 0 11
-13 41 -29 56 -30 58 -32 63 -116 3 -56 16 -107 31 -125 7 -8 20 -49 29 -90
10 -41 22 -83 27 -93 5 -10 8 -21 5 -26 -3 -4 1 -25 9 -47 13 -39 13 -39 -18
-56 l-32 -17 36 -1 c24 0 39 -6 43 -16 8 -22 7 -31 -2 -17 -7 10 -12 10 -27
-1 -18 -13 -17 -15 19 -30 27 -11 43 -13 56 -6 27 14 30 13 30 -16 0 -17 6
-28 19 -31 24 -6 43 -44 42 -85 0 -10 4 -20 10 -23 5 -4 9 6 9 21 0 22 3 25
12 16 7 -7 13 -18 13 -25 3 -39 19 -68 36 -64 12 3 16 0 12 -9 -9 -25 8 -36
28 -18 22 20 25 54 5 54 -16 0 -46 42 -46 65 0 9 -12 18 -30 22 -35 6 -36 10
-14 34 15 17 14 19 -10 25 -18 4 -26 13 -26 29 0 12 -7 28 -15 35 -8 7 -15 21
-15 32 0 10 -7 21 -15 24 -8 3 -17 16 -21 27 -4 12 -17 34 -28 48 -24 28 -94
227 -96 269 -1 58 -1 87 2 130 3 38 7 46 26 48 15 2 22 -2 22 -13 0 -9 10 -29
22 -46 18 -24 20 -32 9 -38 -13 -9 -8 -64 9 -86 4 -5 10 -28 13 -50 7 -56 27
-106 60 -144 15 -18 25 -37 22 -41 -3 -5 4 -14 16 -21 17 -9 23 -8 30 2 14 22
10 36 -13 56 -25 21 -58 77 -58 99 0 8 -9 23 -20 34 -11 11 -20 31 -20 45 0
16 -6 25 -16 25 -9 0 -14 6 -11 13 8 24 29 11 42 -26 7 -21 20 -46 28 -55 8
-9 18 -27 21 -39 4 -13 15 -23 25 -23 10 0 29 -8 42 -18 29 -22 88 -52 103
-52 6 0 22 -13 36 -30 14 -16 36 -31 50 -33 16 -3 25 -11 26 -23 2 -39 17 -64
40 -70 13 -3 24 -10 24 -16 0 -21 52 -2 68 25 14 22 15 31 4 47 -10 17 -10 20
4 20 11 0 15 6 11 20 -3 12 0 20 8 20 7 0 13 -10 13 -22 0 -13 3 -49 7 -81 7
-48 5 -61 -10 -77 -10 -11 -24 -20 -30 -20 -7 0 -25 -16 -39 -35 -15 -19 -32
-32 -39 -30 -20 8 -39 -11 -35 -36 2 -18 11 -25 38 -30 35 -7 62 0 61 17 0 5
7 9 17 10 38 2 42 5 42 23 0 11 9 23 20 26 11 3 20 15 20 26 0 10 7 19 15 19
25 0 65 23 65 37 0 7 7 13 15 13 8 0 15 5 15 11 0 7 9 9 21 6 27 -7 49 1 49
19 0 16 16 19 25 4 3 -6 -1 -13 -9 -16 -21 -8 -20 -21 4 -41 11 -10 20 -23 20
-29 0 -7 6 -14 13 -17 7 -2 8 -8 3 -13 -5 -5 -11 -4 -13 4 -3 6 -12 12 -21 12
-10 0 -23 9 -30 20 -15 24 -32 26 -32 4 0 -9 9 -18 21 -21 11 -3 18 -11 15
-18 -5 -15 14 -25 46 -25 17 0 19 -2 7 -16 -10 -13 -10 -17 0 -23 7 -5 11 -17
8 -27 -5 -18 -5 -17 -12 2 -5 18 -42 44 -60 44 -2 0 -16 -11 -31 -25 -27 -25
-19 -33 15 -15 14 7 25 4 47 -16 28 -24 28 -25 10 -39 -10 -7 -15 -19 -11 -25
5 -8 13 -6 26 6 11 10 19 12 19 6 0 -7 5 -12 11 -12 6 0 20 -11 31 -25 20 -26
52 -33 64 -14 3 6 1 16 -5 22 -15 15 -13 38 4 61 15 20 15 20 30 0 8 -10 13
-27 11 -36 -3 -11 2 -18 11 -18 8 0 12 4 9 9 -14 22 85 29 129 9 30 -13 32
-34 6 -67 l-19 -25 -13 42 c-9 30 -17 41 -27 37 -7 -3 -16 -5 -18 -5 -2 0 -4
-7 -4 -15 0 -8 5 -15 10 -15 6 0 10 -7 10 -15 0 -12 -6 -12 -47 0 -49 15 -113
6 -113 -16 0 -12 27 -11 67 3 18 6 36 8 40 4 5 -5 3 -11 -4 -13 -10 -3 -10 -9
0 -24 14 -22 -2 -56 -24 -52 -18 3 -21 -41 -4 -73 l12 -25 6 31 c8 38 44 42
53 6 6 -24 6 -24 25 -5 26 26 24 46 -6 53 -14 4 -25 11 -25 16 0 13 6 13 42
-6 17 -9 38 -14 48 -11 14 4 20 -3 25 -31 4 -20 14 -43 23 -52 10 -8 17 -24
17 -35 0 -15 6 -19 22 -18 15 2 30 -7 45 -27 12 -17 25 -30 30 -30 4 0 8 27 8
60 0 47 -3 60 -15 60 -8 0 -15 5 -15 10 0 6 7 10 15 10 8 0 15 9 15 20 0 21
-15 27 -25 10 -9 -15 -25 -2 -25 21 0 23 -23 25 -45 3 -15 -15 -15 -12 -9 35
4 35 3 51 -5 51 -6 0 -11 17 -11 40 0 22 -4 40 -10 40 -5 0 -10 7 -10 15 0 8
-4 15 -10 15 -19 0 -10 38 10 43 11 3 20 12 20 21 0 23 14 20 25 -6 6 -14 17
-22 28 -20 11 2 17 -4 17 -17 0 -11 3 -26 6 -35 4 -11 1 -16 -11 -16 -9 0 -13
-5 -10 -10 4 -6 1 -18 -6 -27 -11 -13 -10 -17 6 -29 25 -19 28 -18 42 13 10
21 10 28 0 35 -9 6 -9 12 1 28 8 13 10 34 6 55 -4 23 -2 35 5 35 18 0 15 1427
-3 1459 -12 21 -14 22 -23 7 -8 -14 -14 -15 -36 -7 -15 6 -27 16 -27 23 -1 8
-7 5 -16 -7 -15 -20 -15 -20 -34 3 l-19 23 -21 -21 c-11 -11 -27 -20 -36 -20
-27 0 -94 22 -94 31 0 13 -961 10 -977 -3 -9 -7 -13 -7 -13 1 0 15 -37 14 -43
-1 -4 -10 -7 -10 -18 0 -7 7 -36 12 -69 11 -30 -1 -47 -3 -37 -6 19 -5 20 -34
2 -40 -6 -2 -22 7 -35 19 -24 23 -26 23 -400 26 -346 2 -376 1 -387 -15 -10
-13 -16 -14 -25 -5 -14 14 -58 16 -58 3 0 -15 29 -34 43 -28 7 3 19 -4 25 -14
11 -17 9 -19 -13 -19 -14 0 -25 5 -25 10 0 6 -11 10 -24 10 -27 0 -53 24 -36
35 30 18 -6 23 -175 24 l-185 1 0 -40 c0 -39 -1 -40 -33 -40 -21 0 -36 7 -45
20 -7 11 -17 20 -22 20 -6 0 -10 -9 -10 -20 0 -11 -4 -20 -10 -20 -5 0 -10 18
-10 40 0 33 -3 40 -20 40 -17 0 -20 -7 -20 -40z m1847 -22 c-3 -8 -6 -5 -6 6
-1 11 2 17 5 13 3 -3 4 -12 1 -19z m-235 -20 c-7 -7 -12 -8 -12 -2 0 14 12 26
19 19 2 -3 -1 -11 -7 -17z m393 12 c3 -5 17 -10 31 -10 17 0 24 -6 24 -19 0
-19 -1 -19 -40 -3 -22 9 -40 23 -40 30 0 14 16 16 25 2z m-325 -31 c0 -5 -7
-9 -15 -9 -9 0 -15 9 -15 21 0 18 2 19 15 9 8 -7 15 -16 15 -21z m-2076 -63
c-24 -18 -29 -14 -14 14 9 16 15 19 23 11 8 -8 6 -15 -9 -25z m53 12 c-3 -8
-6 -5 -6 6 -1 11 2 17 5 13 3 -3 4 -12 1 -19z m1998 -8 c3 -6 -1 -7 -9 -4 -18
7 -21 14 -7 14 6 0 13 -4 16 -10z m-1685 -40 c0 -29 -4 -40 -15 -40 -11 0 -15
11 -15 40 0 29 4 40 15 40 11 0 15 -11 15 -40z m1780 28 c17 -11 22 -10 30 2
5 8 12 11 16 7 4 -4 1 -15 -8 -24 -20 -19 -68 -10 -68 12 0 18 4 19 30 3z
m-955 -38 c3 -5 1 -10 -4 -10 -6 0 -11 5 -11 10 0 6 2 10 4 10 3 0 8 -4 11
-10z m-1135 -20 c0 -5 -5 -10 -11 -10 -5 0 -7 5 -4 10 3 6 8 10 11 10 2 0 4
-4 4 -10z m1405 0 c3 -5 -3 -10 -15 -10 -12 0 -18 5 -15 10 3 6 10 10 15 10 5
0 12 -4 15 -10z m-1428 -82 c-3 -7 -5 -2 -5 12 0 14 2 19 5 13 2 -7 2 -19 0
-25z m260 0 c-3 -8 -6 -5 -6 6 -1 11 2 17 5 13 3 -3 4 -12 1 -19z m133 -197
c0 -11 -9 -21 -22 -24 -30 -8 -33 -2 -11 26 20 27 33 26 33 -2z m107 -28 c-3
-3 -11 -2 -17 2 -9 6 -9 10 1 16 14 8 27 -7 16 -18z m743 -4 c0 -5 -4 -9 -10
-9 -5 0 -10 7 -10 16 0 8 5 12 10 9 6 -3 10 -10 10 -16z m-796 -15 c9 -3 16
-12 16 -20 0 -8 9 -14 20 -14 11 0 20 -7 20 -15 0 -8 -9 -15 -20 -15 -11 0
-20 7 -20 15 0 8 -9 15 -19 15 -22 0 -35 15 -26 30 7 12 8 12 29 4z m103 0
c-3 -3 -12 -4 -19 -1 -8 3 -5 6 6 6 11 1 17 -2 13 -5z m1553 -34 c0 -5 -4 -10
-10 -10 -5 0 -10 5 -10 10 0 6 5 10 10 10 6 0 10 -4 10 -10z m-476 -48 c3 -5
-1 -9 -9 -9 -8 0 -12 4 -9 9 3 4 7 8 9 8 2 0 6 -4 9 -8z m-669 -14 c30 -14 33
-28 4 -28 -28 0 -61 19 -54 31 8 12 19 11 50 -3z m1312 -25 c-3 -10 -5 -4 -5
12 0 17 2 24 5 18 2 -7 2 -21 0 -30z m-367 -13 c0 -10 -4 -21 -9 -24 -10 -7
-20 23 -14 42 6 17 23 4 23 -18z m185 -59 c3 -5 1 -12 -5 -16 -5 -3 -10 1 -10
9 0 18 6 21 15 7z m45 -7 c0 -8 -4 -12 -10 -9 -5 3 -10 10 -10 16 0 5 5 9 10
9 6 0 10 -7 10 -16z m-50 -78 c0 -11 -19 -15 -25 -6 -3 5 1 10 9 10 9 0 16 -2
16 -4z m-832 -18 c18 -18 15 -28 -8 -28 -13 0 -20 7 -20 20 0 23 10 26 28 8z
m145 -13 c-7 -21 -13 -19 -13 6 0 11 4 18 10 14 5 -3 7 -12 3 -20z m708 -26
c-5 -13 -10 -19 -10 -12 -1 15 10 45 15 40 3 -2 0 -15 -5 -28z m319 20 c0 -6
8 -8 19 -4 12 4 26 -1 38 -13 10 -11 31 -22 46 -26 34 -8 34 -39 -1 -44 -18
-3 -22 -10 -22 -38 0 -19 -6 -43 -12 -54 -10 -15 -10 -22 0 -32 11 -11 16 -10
26 5 7 9 21 17 30 17 9 0 16 5 16 10 0 6 4 10 9 10 6 0 7 -16 4 -35 -4 -25 -2
-35 7 -35 9 0 8 -5 -3 -18 -18 -20 -22 -42 -8 -42 5 0 11 -10 14 -21 5 -17 11
-20 31 -15 21 5 26 3 26 -11 0 -13 -8 -18 -30 -19 -17 -1 -30 3 -30 9 0 6 -3
7 -6 4 -4 -4 1 -18 11 -33 12 -19 14 -29 6 -37 -8 -8 -11 -8 -11 1 0 7 -7 12
-16 12 -13 0 -15 7 -11 30 9 41 -34 83 -70 69 -17 -6 -23 -5 -23 6 0 7 5 17
10 20 7 4 7 12 0 25 -5 10 -10 35 -10 54 0 24 -5 36 -14 36 -9 0 -13 -11 -12
-32 1 -27 -3 -33 -18 -31 -11 1 -25 -6 -32 -15 -11 -16 -14 -15 -31 1 -11 9
-23 14 -26 10 -4 -3 -15 2 -26 11 -12 11 -21 14 -26 7 -4 -7 -14 -3 -28 9 -12
12 -31 23 -43 26 -14 4 -24 16 -27 32 -2 15 -8 36 -12 46 -7 16 -5 18 8 13 11
-4 25 3 41 20 23 24 27 25 56 13 40 -17 37 -45 -5 -45 -41 0 -48 -19 -8 -23
17 -2 37 -10 43 -18 7 -8 19 -14 26 -14 8 0 14 -10 14 -22 0 -19 6 -23 31 -23
24 0 34 6 40 23 5 13 17 22 29 22 26 0 26 20 0 27 -11 3 -20 9 -20 14 0 5 -18
9 -40 9 -22 0 -40 5 -40 10 0 6 7 10 15 10 11 0 15 11 15 36 0 23 6 42 18 50
21 16 32 17 32 3z m205 -26 c-4 -10 -10 -28 -12 -40 -3 -13 -12 -23 -19 -23
-8 0 -14 -9 -14 -20 0 -24 -6 -25 -26 -6 -19 20 -18 26 6 26 11 0 20 7 20 15
0 25 23 65 38 65 10 0 12 -6 7 -17z m-1275 -18 c0 -8 -4 -15 -10 -15 -5 0 -10
7 -10 15 0 8 5 15 10 15 6 0 10 -7 10 -15z m740 -40 c0 -8 -4 -15 -10 -15 -5
0 -10 7 -10 15 0 8 5 15 10 15 6 0 10 -7 10 -15z m-600 -65 c0 -5 -7 -10 -15
-10 -8 0 -15 5 -15 10 0 6 7 10 15 10 8 0 15 -4 15 -10z m1210 -100 c0 -5 -2
-10 -4 -10 -3 0 -8 5 -11 10 -3 6 -1 10 4 10 6 0 11 -4 11 -10z m-264 -11 c3
-6 0 -15 -7 -20 -13 -7 -28 5 -29 24 0 11 28 8 36 -4z m284 -90 c0 -24 -23
-21 -28 4 -2 10 3 17 12 17 10 0 16 -9 16 -21z m17 -55 c-3 -3 -12 -4 -19 -1
-8 3 -5 6 6 6 11 1 17 -2 13 -5z m333 -414 c-19 -13 -30 -13 -30 0 0 6 10 10
23 10 18 0 19 -2 7 -10z m70 -30 c0 -5 -4 -10 -10 -10 -5 0 -10 5 -10 10 0 6
5 10 10 10 6 0 10 -4 10 -10z"/>
<path d="M6440 6090 c-12 -8 -10 -10 8 -10 13 0 20 4 17 10 -7 12 -6 12 -25 0z"/>
<path d="M4080 7176 c0 -9 5 -16 10 -16 6 0 10 4 10 9 0 6 -4 13 -10 16 -5 3
-10 -1 -10 -9z"/>
<path d="M2928 7163 c-10 -2 -18 -11 -18 -18 0 -8 6 -12 14 -9 8 3 17 1 21 -5
10 -17 55 -13 55 4 0 12 -44 40 -53 34 -1 -1 -10 -3 -19 -6z"/>
<path d="M888 7153 c7 -3 16 -2 19 1 4 3 -2 6 -13 5 -11 0 -14 -3 -6 -6z"/>
<path d="M3520 7131 c0 -17 -4 -31 -10 -31 -13 0 -13 -37 -1 -45 6 -3 15 11
20 32 14 47 14 60 1 68 -6 4 -10 -7 -10 -24z"/>
<path d="M3967 7143 c-10 -9 -9 -43 2 -43 13 0 23 32 13 42 -5 5 -11 5 -15 1z"/>
<path d="M4049 7131 c13 -11 19 -25 15 -35 -3 -9 -3 -24 1 -33 6 -15 10 -11
20 17 15 43 2 70 -34 70 l-24 0 22 -19z"/>
<path d="M3595 7127 c-6 -7 -8 -23 -5 -36 l5 -23 14 26 c16 28 4 53 -14 33z"/>
<path d="M3048 7123 c6 -2 18 -2 25 0 6 3 1 5 -13 5 -14 0 -19 -2 -12 -5z"/>
<path d="M3457 7101 c-8 -33 2 -55 19 -40 17 14 17 20 1 44 -13 17 -14 17 -20
-4z"/>
<path d="M3538 7046 c-37 -28 -11 -116 34 -116 21 0 89 88 85 110 -1 8 -11 15
-22 15 -14 0 -19 -6 -17 -17 4 -23 -4 -23 -30 2 -25 23 -27 24 -50 6z"/>
<path d="M3440 7019 c0 -10 4 -19 9 -19 8 0 37 29 30 31 -35 7 -39 6 -39 -12z"/>
<path d="M3545 6899 c-9 -13 13 -30 35 -26 8 1 15 9 15 17 0 18 -40 26 -50 9z"/>
<path d="M3615 6824 c-14 -11 -16 -18 -7 -21 8 -3 12 -34 12 -104 0 -72 3 -98
11 -93 8 5 9 35 5 100 -7 89 -6 94 12 94 18 0 21 -10 27 -80 4 -44 12 -80 17
-80 6 0 8 13 4 33 -4 17 -9 57 -13 87 -3 33 -12 60 -22 67 -20 16 -22 16 -46
-3z"/>
<path d="M3533 6823 c-7 -2 -13 -17 -13 -31 0 -15 -9 -38 -20 -52 -11 -14 -20
-41 -20 -62 0 -31 4 -38 20 -38 18 0 20 7 20 58 0 32 7 65 14 75 12 16 14 15
26 -13 12 -28 14 -29 26 -13 20 26 17 50 -8 67 -24 17 -26 17 -45 9z"/>
<path d="M3740 6810 c0 -5 5 -10 10 -10 6 0 10 -8 10 -17 0 -12 3 -14 10 -7
14 14 2 44 -16 44 -8 0 -14 -4 -14 -10z"/>
<path d="M3720 6680 c0 -22 5 -40 10 -40 6 0 10 8 10 18 0 9 3 27 6 40 5 16 2
22 -10 22 -12 0 -16 -10 -16 -40z"/>
<path d="M3423 6693 c-18 -7 -16 -43 2 -43 9 0 15 9 15 25 0 14 -1 25 -2 24
-2 0 -9 -3 -15 -6z"/>
<path d="M3565 6678 c-4 -10 -2 -30 3 -45 6 -16 11 -21 11 -11 1 9 5 18 10 20
5 2 3 14 -4 28 -12 22 -14 23 -20 8z"/>
<path d="M3368 6643 c6 -2 18 -2 25 0 6 3 1 5 -13 5 -14 0 -19 -2 -12 -5z"/>
<path d="M3511 6631 c-9 -6 -10 -11 -2 -15 15 -10 14 -43 -1 -49 -8 -4 -7 -6
3 -6 11 -1 19 10 23 30 10 52 7 59 -23 40z"/>
<path d="M3360 6615 c0 -8 6 -15 14 -15 8 0 16 7 20 15 4 10 -1 15 -14 15 -11
0 -20 -7 -20 -15z"/>
<path d="M3787 6584 c-13 -13 -7 -23 13 -21 11 1 19 6 17 11 -4 13 -21 18 -30
10z"/>
<path d="M4088 6544 c22 -15 42 -12 42 7 0 5 -15 9 -32 9 -32 0 -32 0 -10 -16z"/>
<path d="M3763 6538 c-30 -14 -29 -26 3 -38 39 -15 46 -12 42 17 -4 31 -14 36
-45 21z"/>
<path d="M3978 6533 c-24 -6 -23 -19 2 -26 15 -4 20 0 20 14 0 10 -1 18 -2 18
-2 -1 -11 -3 -20 -6z"/>
<path d="M3346 6513 c-3 -4 -1 -12 5 -20 14 -16 52 -18 47 -1 -5 13 -44 29
-52 21z"/>
<path d="M4282 6498 c-9 -9 -5 -15 19 -25 17 -7 40 -13 51 -13 12 0 23 -11 29
-30 8 -22 17 -30 35 -30 41 0 83 -57 54 -75 -6 -4 -7 -11 -4 -17 4 -7 9 -6 14
2 6 9 10 6 15 -9 3 -11 15 -21 25 -21 10 0 22 -9 25 -20 7 -23 49 -28 62 -7
13 21 43 29 49 12 7 -17 -18 -45 -40 -45 -9 0 -16 -6 -16 -14 0 -24 47 -46 99
-46 33 0 51 -5 54 -14 3 -8 21 -16 39 -18 25 -2 34 -8 36 -25 2 -17 10 -23 27
-23 15 0 26 -7 30 -20 3 -11 19 -29 35 -40 16 -11 32 -29 35 -40 4 -11 20 -27
36 -36 22 -11 28 -20 24 -33 -4 -12 9 -33 40 -66 25 -27 47 -56 50 -65 3 -9
16 -22 29 -28 16 -7 26 -21 28 -39 2 -22 9 -29 31 -31 23 -3 26 -6 17 -17 -9
-11 -6 -17 14 -30 14 -9 23 -22 20 -29 -3 -7 7 -21 21 -30 l26 -17 -6 48 c-5
34 -15 56 -33 73 -15 14 -26 32 -24 41 1 9 -18 36 -44 60 -77 72 -94 91 -94
105 0 8 -7 14 -15 14 -8 0 -15 8 -15 18 0 10 -11 29 -25 42 -14 13 -25 29 -25
35 0 7 -20 31 -45 54 -25 23 -45 47 -45 54 0 19 -21 37 -42 37 -12 0 -18 7
-18 21 0 11 -13 34 -29 50 -16 16 -25 29 -19 29 5 0 -10 20 -35 44 -33 34 -50
43 -66 39 -15 -4 -21 -1 -21 11 0 9 6 16 14 16 8 0 16 6 19 13 3 9 -6 14 -28
15 -21 2 -35 -3 -38 -12 -4 -11 -14 -12 -44 -5 -21 4 -46 6 -55 3 -13 -4 -18
0 -18 16 0 18 5 21 24 18 14 -3 30 -2 37 3 16 9 4 38 -18 46 -10 4 -22 12 -26
20 -4 7 -13 13 -18 13 -6 0 -17 7 -25 15 -19 19 -25 19 -50 0 -18 -14 -18 -14
7 -15 23 0 26 -4 21 -25 -5 -29 -16 -31 -67 -9 -24 10 -35 20 -31 29 5 15 -5
19 -64 29 -22 4 -40 2 -48 -6z m333 -178 c11 -17 -5 -32 -21 -19 -7 6 -11 15
-8 20 7 12 21 11 29 -1z m102 -67 c-3 -10 -5 -4 -5 12 0 17 2 24 5 18 2 -7 2
-21 0 -30z"/>
<path d="M3659 6468 c-8 -26 -4 -37 14 -42 32 -8 47 12 23 30 -18 13 -35 18
-37 12z"/>
<path d="M3764 6409 c-9 -15 -2 -18 20 -9 17 6 18 7 3 13 -9 3 -19 2 -23 -4z"/>
<path d="M3947 6413 c-17 -16 -5 -33 23 -33 17 0 30 -4 30 -9 0 -5 10 -11 23
-14 12 -2 30 -8 40 -12 10 -4 17 -3 17 4 0 6 -7 11 -15 11 -28 0 -65 24 -65
42 0 12 -7 18 -23 18 -13 0 -27 -3 -30 -7z"/>
<path d="M3385 6390 c4 -6 11 -8 16 -5 14 9 11 15 -7 15 -8 0 -12 -5 -9 -10z"/>
<path d="M3448 6393 c7 -3 16 -2 19 1 4 3 -2 6 -13 5 -11 0 -14 -3 -6 -6z"/>
<path d="M5626 6383 c-8 -21 10 -41 24 -27 11 11 3 44 -10 44 -4 0 -11 -8 -14
-17z"/>
<path d="M3350 6370 c0 -5 5 -10 10 -10 6 0 10 5 10 10 0 6 -4 10 -10 10 -5 0
-10 -4 -10 -10z"/>
<path d="M3465 6350 c-3 -5 1 -10 9 -10 9 0 16 5 16 10 0 6 -4 10 -9 10 -6 0
-13 -4 -16 -10z"/>
<path d="M4057 6254 c-8 -8 1 -24 14 -24 5 0 9 7 9 15 0 15 -12 20 -23 9z"/>
<path d="M4200 6250 c0 -5 10 -10 23 -10 18 0 19 2 7 10 -19 13 -30 13 -30 0z"/>
<path d="M5080 6250 c0 -5 5 -10 10 -10 6 0 10 5 10 10 0 6 -4 10 -10 10 -5 0
-10 -4 -10 -10z"/>
<path d="M5107 6233 c-18 -17 -5 -33 28 -33 39 0 46 14 16 30 -23 12 -35 13
-44 3z"/>
<path d="M4270 6175 c0 -8 4 -15 9 -15 5 0 16 -3 25 -6 26 -10 18 12 -9 24
-21 10 -25 9 -25 -3z"/>
<path d="M5215 6169 c-9 -13 -7 -15 37 -34 46 -19 58 -4 19 24 -33 23 -47 26
-56 10z"/>
<path d="M5070 6134 c0 -4 11 -17 24 -29 22 -20 27 -21 43 -9 17 13 17 13 -3
14 -12 0 -27 7 -34 15 -13 15 -30 20 -30 9z"/>
<path d="M4600 6119 c0 -5 5 -7 10 -4 6 3 10 8 10 11 0 2 -4 4 -10 4 -5 0 -10
-5 -10 -11z"/>
<path d="M5360 6070 c0 -19 3 -21 12 -12 9 9 9 15 0 24 -9 9 -12 7 -12 -12z"/>
<path d="M5641 5968 c-8 -15 -11 -35 -7 -44 11 -28 28 -1 24 37 l-4 34 -13
-27z"/>
<path d="M4712 5959 c2 -7 10 -15 17 -17 8 -3 12 1 9 9 -2 7 -10 15 -17 17 -8
3 -12 -1 -9 -9z"/>
<path d="M6146 5941 c-3 -5 -3 -16 0 -24 3 -9 -3 -24 -13 -34 -24 -24 -35 -51
-27 -65 12 -19 61 61 67 111 2 17 -19 26 -27 12z"/>
<path d="M4772 5904 c7 -8 21 -23 31 -32 9 -9 17 -25 17 -35 0 -11 5 -17 13
-14 7 2 11 16 9 33 -4 32 -20 56 -32 49 -5 -3 -11 -1 -15 5 -3 5 -13 10 -21
10 -12 0 -13 -3 -2 -16z"/>
<path d="M5665 5891 c-3 -5 -1 -12 5 -16 5 -3 10 1 10 9 0 18 -6 21 -15 7z"/>
<path d="M6160 5829 c0 -31 1 -32 16 -17 16 15 16 18 0 33 -15 15 -16 14 -16
-16z"/>
<path d="M5138 5843 c7 -3 16 -2 19 1 4 3 -2 6 -13 5 -11 0 -14 -3 -6 -6z"/>
<path d="M6134 5763 c21 -87 28 -103 42 -103 10 0 13 -6 9 -19 -3 -10 -1 -29
4 -42 5 -13 12 -36 15 -51 4 -19 13 -28 25 -28 24 0 32 32 16 63 -9 17 -10 28
-3 35 7 7 3 14 -12 22 -12 6 -19 18 -16 25 2 7 -4 21 -15 31 -10 9 -19 23 -19
31 0 7 -4 13 -10 13 -5 0 -10 9 -10 19 0 10 -7 22 -16 25 -13 5 -15 1 -10 -21z"/>
<path d="M4869 5770 c-7 -18 10 -62 28 -73 7 -4 13 -16 13 -26 0 -10 6 -24 14
-30 8 -7 17 -23 20 -37 6 -21 146 -175 146 -160 0 18 -87 176 -97 176 -14 0
-27 36 -18 50 3 5 2 10 -2 10 -5 0 -17 14 -27 30 -9 17 -23 30 -29 29 -27 -3
-36 2 -39 24 -3 16 -5 18 -9 7z"/>
<path d="M4820 5750 c0 -23 15 -27 23 -6 3 8 -1 17 -9 20 -9 4 -14 -1 -14 -14z"/>
<path d="M5858 5763 c-22 -5 -23 -32 -4 -59 14 -18 15 -18 25 9 18 46 13 57
-21 50z"/>
<path d="M6240 5744 c0 -8 5 -12 10 -9 6 3 10 10 10 16 0 5 -4 9 -10 9 -5 0
-10 -7 -10 -16z"/>
<path d="M4256 5733 c-3 -3 -3 -10 0 -14 7 -12 34 -11 34 0 0 11 -26 22 -34
14z"/>
<path d="M5911 5694 c0 -11 3 -14 6 -6 3 7 2 16 -1 19 -3 4 -6 -2 -5 -13z"/>
<path d="M6481 5689 c-1 -21 28 -34 43 -19 7 7 3 10 -11 10 -12 0 -24 6 -26
13 -4 7 -6 6 -6 -4z"/>
<path d="M7076 5651 c-9 -14 2 -51 15 -51 5 0 12 7 16 16 7 19 -21 51 -31 35z"/>
<path d="M6540 5630 c19 -13 30 -13 30 0 0 6 -10 10 -22 10 -19 0 -20 -2 -8
-10z"/>
<path d="M5946 5603 c-10 -10 -7 -23 5 -23 5 0 7 5 4 10 -11 18 17 11 31 -7
13 -17 13 -17 14 2 0 15 -7 21 -24 23 -13 1 -26 -1 -30 -5z"/>
<path d="M5680 5590 c0 -5 4 -10 9 -10 6 0 13 5 16 10 3 6 -1 10 -9 10 -9 0
-16 -4 -16 -10z"/>
<path d="M6105 5517 c-4 -10 -5 -21 -1 -24 10 -10 18 4 13 24 -4 17 -4 17 -12
0z"/>
<path d="M5230 5506 c0 -7 7 -19 15 -26 8 -7 15 -21 15 -32 0 -10 9 -37 20
-59 12 -22 18 -44 15 -49 -7 -11 14 -54 22 -46 4 3 15 -1 25 -11 19 -17 20
-17 22 38 1 28 -2 35 -13 31 -9 -3 -12 -1 -8 5 6 9 -24 55 -53 83 -12 12 -30
51 -30 65 0 8 -7 15 -15 15 -8 0 -15 -6 -15 -14z"/>
<path d="M6212 5464 c3 -53 19 -69 51 -52 12 6 23 6 32 -2 24 -20 36 -2 18 26
-13 21 -22 25 -45 20 -23 -4 -28 -2 -28 13 0 10 -7 24 -16 32 -14 11 -15 7
-12 -37z"/>
<path d="M7133 5503 c-20 -8 -15 -23 7 -23 11 0 20 7 20 15 0 15 -6 17 -27 8z"/>
<path d="M6800 5480 c0 -5 5 -10 10 -10 6 0 10 5 10 10 0 6 -4 10 -10 10 -5 0
-10 -4 -10 -10z"/>
<path d="M5940 5461 c0 -29 15 -33 18 -5 1 13 -3 24 -8 24 -6 0 -10 -9 -10
-19z"/>
<path d="M6115 5460 c-8 -13 -1 -24 14 -19 6 3 7 10 2 18 -6 10 -10 10 -16 1z"/>
<path d="M5110 5363 c0 -29 4 -53 9 -53 15 0 18 57 5 82 -12 21 -13 19 -14
-29z"/>
<path d="M5937 5383 c-12 -11 -8 -98 5 -111 24 -24 31 -12 25 44 -6 56 -17 81
-30 67z"/>
<path d="M6217 5374 c-3 -3 -1 -17 4 -31 7 -18 6 -30 -2 -40 -10 -11 -9 -18 5
-31 15 -15 18 -15 26 -2 13 20 13 50 0 50 -5 0 -10 14 -10 30 0 28 -9 38 -23
24z"/>
<path d="M6260 5371 c0 -12 26 -32 33 -25 9 10 -4 34 -19 34 -8 0 -14 -4 -14
-9z"/>
<path d="M7037 5349 c7 -7 15 -10 18 -7 3 3 -2 9 -12 12 -14 6 -15 5 -6 -5z"/>
<path d="M6940 5326 c0 -10 9 -16 21 -16 24 0 21 23 -4 28 -10 2 -17 -3 -17
-12z"/>
<path d="M4974 5266 c-3 -8 -1 -23 5 -33 9 -15 10 -13 11 15 0 34 -7 42 -16
18z"/>
<path d="M5310 5240 c0 -16 91 -101 101 -94 19 11 9 34 -16 34 -15 0 -28 7
-32 17 -7 17 -39 53 -48 53 -3 0 -5 -5 -5 -10z"/>
<path d="M5893 5214 c-9 -23 12 -39 30 -23 11 11 12 16 1 26 -17 17 -23 16
-31 -3z"/>
<path d="M4976 5192 c-4 -13 -5 -26 -2 -29 10 -11 18 4 14 29 l-4 23 -8 -23z"/>
<path d="M5800 5136 c0 -46 -3 -54 -21 -59 -18 -5 -21 -11 -15 -41 5 -27 1
-42 -18 -71 -20 -29 -23 -41 -15 -56 5 -10 15 -19 21 -19 6 0 -4 -13 -22 -30
-18 -16 -38 -30 -43 -30 -5 0 -4 -7 3 -15 9 -10 9 -15 1 -15 -6 0 -11 -8 -11
-17 0 -14 5 -12 25 10 14 15 31 27 38 27 7 0 23 9 37 20 14 11 35 20 46 20 21
0 41 16 44 35 0 6 12 9 25 7 14 -2 25 1 25 7 0 6 -9 11 -20 11 -11 0 -19 5
-17 12 1 6 -6 14 -15 16 -12 2 -18 -3 -18 -15 0 -11 -3 -14 -8 -7 -4 7 -16 13
-26 15 -31 6 -28 22 14 68 22 24 40 50 40 58 0 8 5 23 10 34 8 14 7 19 -2 19
-7 0 -18 -10 -23 -22 -11 -25 -42 -32 -36 -8 2 8 4 20 6 25 1 6 5 18 10 28 7
17 -9 47 -26 47 -5 0 -9 -24 -9 -54z"/>
<path d="M6281 5126 c-17 -20 5 -31 24 -12 8 8 15 17 15 20 0 12 -28 6 -39 -8z"/>
<path d="M4987 5109 c4 -13 8 -18 11 -10 2 7 -1 18 -6 23 -8 8 -9 4 -5 -13z"/>
<path d="M6861 5103 c1 -37 34 -75 79 -92 30 -12 45 -23 44 -34 -1 -9 2 -17 7
-17 5 0 9 -7 9 -15 0 -8 -9 -15 -20 -15 -14 0 -20 7 -20 22 0 21 0 21 -15 2
-20 -26 -19 -41 5 -47 11 -3 20 -10 20 -16 0 -15 -27 -14 -32 1 -3 8 -12 8
-33 0 -18 -6 -23 -11 -12 -11 13 -1 17 -10 17 -38 0 -37 0 -37 16 -15 17 25
64 31 64 8 0 -8 3 -21 6 -29 3 -9 -3 -16 -15 -20 -12 -3 -21 -1 -21 4 0 5 -5
9 -10 9 -13 0 7 -41 28 -56 20 -15 -4 -53 -29 -47 -9 3 -27 -5 -38 -16 -25
-25 -47 -27 -59 -5 -9 16 -79 35 -130 36 -13 0 -21 5 -19 12 3 6 10 10 16 9 6
-2 11 4 11 12 0 8 -7 15 -17 15 -15 0 -15 1 0 18 10 10 14 22 10 25 -3 4 -1 7
5 7 7 0 12 7 12 15 0 14 21 21 45 15 6 -2 29 -6 53 -10 37 -6 42 -5 42 12 0
13 -7 18 -25 18 -14 0 -25 5 -25 10 0 14 -33 13 -47 -1 -13 -13 -47 -4 -39 9
6 11 -19 31 -69 57 -22 11 -47 28 -57 38 -20 19 -27 20 -47 8 -10 -7 -8 -14
10 -35 12 -14 31 -26 42 -26 10 0 30 -9 44 -20 14 -11 31 -20 38 -20 7 0 18
-6 24 -14 17 -20 -7 -26 -39 -9 -33 17 -50 16 -50 -2 0 -8 6 -15 14 -15 19 0
48 -29 41 -40 -3 -5 -16 -5 -30 0 -16 6 -25 6 -25 0 0 -6 -11 -10 -25 -10 -19
0 -23 4 -18 17 5 12 2 15 -13 11 -11 -3 -25 1 -32 9 -15 15 -46 18 -37 3 3 -5
13 -10 21 -10 8 0 12 -5 9 -11 -4 -6 2 -13 14 -16 12 -3 21 -10 21 -17 1 -6
21 -24 45 -39 44 -28 51 -47 16 -47 -9 0 -22 5 -28 11 -20 20 -158 28 -177 9
-17 -17 -36 -11 -36 10 0 11 -5 20 -11 20 -5 0 -7 -4 -4 -10 3 -5 -3 -10 -14
-10 -12 0 -21 5 -21 11 0 7 -12 10 -30 7 -18 -3 -35 1 -41 9 -9 10 -6 13 15
13 14 0 26 5 26 10 0 15 -89 4 -109 -14 -10 -9 -23 -16 -29 -16 -7 0 -12 -4
-12 -10 0 -5 -8 -10 -17 -10 -10 0 -31 -9 -48 -20 -27 -18 -47 -20 -203 -20
-141 0 -176 3 -188 15 -17 17 -69 21 -59 5 4 -6 2 -17 -4 -24 -17 -20 -1 -22
114 -20 265 6 451 8 464 4 7 -3 16 0 18 7 2 7 -7 15 -22 19 -32 8 -18 27 16
22 15 -2 25 -12 29 -28 5 -22 11 -25 51 -23 275 9 469 -9 496 -47 7 -10 26
-20 42 -22 26 -4 30 -1 28 16 -1 15 5 22 23 24 14 2 30 8 36 13 13 11 24 2 18
-15 -5 -13 35 -36 64 -37 12 0 11 -3 -5 -9 -28 -12 -30 -40 -3 -40 16 0 20 -7
20 -30 0 -16 4 -30 9 -30 5 0 8 -8 7 -17 -1 -18 60 -38 70 -22 3 5 21 9 40 9
l34 0 0 109 c0 102 -1 109 -21 114 -23 6 -17 27 7 27 10 0 14 12 14 44 0 40
-2 44 -30 50 -16 3 -30 9 -30 13 1 15 30 46 37 40 4 -4 1 -13 -5 -19 -18 -18
-15 -28 8 -28 17 0 20 7 20 40 0 23 -5 40 -11 40 -6 0 -8 7 -5 15 3 9 -1 18
-9 21 -8 4 -15 15 -15 26 0 11 -5 16 -11 13 -6 -4 -7 -19 -3 -37 5 -26 3 -30
-9 -25 -10 4 -25 -5 -42 -24 -30 -36 -35 -16 -8 34 22 42 22 59 0 76 -13 9
-17 21 -13 36 5 19 2 24 -16 27 -14 2 -24 12 -28 28 -4 16 -14 26 -28 28 -24
4 -29 -7 -10 -26 9 -9 9 -15 0 -24 -16 -16 -92 7 -92 28 0 15 -23 44 -34 44
-3 0 -6 -8 -5 -17z m190 -157 c5 3 9 1 9 -5 0 -11 -39 -26 -47 -17 -3 3 0 13
8 22 8 10 15 12 17 5 2 -6 8 -9 13 -5z m-34 -72 c-3 -3 -12 -4 -19 -1 -8 3 -5
6 6 6 11 1 17 -2 13 -5z m110 -30 c-9 -9 -28 6 -21 18 4 6 10 6 17 -1 6 -6 8
-13 4 -17z m-40 -120 c-3 -3 -12 -4 -19 -1 -8 3 -5 6 6 6 11 1 17 -2 13 -5z
m-507 -24 c0 -5 -4 -10 -10 -10 -5 0 -10 5 -10 10 0 6 5 10 10 10 6 0 10 -4
10 -10z m577 -29 c15 -20 17 -51 2 -51 -6 0 -8 8 -5 18 4 13 0 18 -15 19 -27
2 -44 18 -35 32 8 12 37 3 53 -18z m-287 -31 c-8 -5 -24 -10 -35 -10 -17 0
-17 2 -5 10 8 5 24 10 35 10 17 0 17 -2 5 -10z m309 -64 c10 -11 8 -16 -8 -21
-29 -9 -45 3 -30 21 15 18 23 18 38 0z m-44 -96 c3 -5 1 -10 -4 -10 -6 0 -11
5 -11 10 0 6 2 10 4 10 3 0 8 -4 11 -10z"/>
<path d="M7052 5088 c-19 -19 -14 -28 14 -28 18 0 25 5 22 17 -4 21 -21 26
-36 11z"/>
<path d="M6205 5065 c-16 -13 -48 -30 -72 -37 -43 -12 -57 -27 -28 -29 43 -3
62 -1 88 9 15 6 27 16 27 21 0 5 9 11 20 14 12 3 20 14 20 26 0 27 -18 26 -55
-4z"/>
<path d="M7185 5050 c-3 -5 -1 -10 4 -10 6 0 11 5 11 10 0 6 -2 10 -4 10 -3 0
-8 -4 -11 -10z"/>
<path d="M6502 4984 c2 -11 11 -20 22 -22 13 -3 17 1 14 14 -2 11 -11 20 -22
22 -13 3 -17 -1 -14 -14z"/>
<path d="M7160 4992 c0 -5 9 -17 20 -27 19 -18 20 -17 20 2 0 12 -7 24 -16 27
-21 8 -24 8 -24 -2z"/>
<path d="M5151 4953 c0 -24 2 -26 12 -11 10 15 12 15 29 -4 14 -17 18 -18 18
-5 0 19 -27 47 -46 47 -9 0 -14 -10 -13 -27z"/>
<path d="M6390 4966 c0 -2 9 -6 20 -9 11 -3 18 -1 14 4 -5 9 -34 13 -34 5z"/>
<path d="M5240 4930 c0 -5 5 -10 10 -10 6 0 10 5 10 10 0 6 -4 10 -10 10 -5 0
-10 -4 -10 -10z"/>
<path d="M6067 4933 c-25 -6 -11 -23 19 -23 15 0 24 5 22 12 -5 14 -17 17 -41
11z"/>
<path d="M6410 4930 c-13 -8 -13 -10 2 -10 9 0 20 5 23 10 8 13 -5 13 -25 0z"/>
<path d="M6465 4930 c-3 -5 -1 -10 4 -10 6 0 11 5 11 10 0 6 -2 10 -4 10 -3 0
-8 -4 -11 -10z"/>
<path d="M5988 4923 c-10 -2 -18 -9 -18 -15 0 -5 7 -7 16 -4 9 3 20 6 25 6 5
0 9 5 9 10 0 10 -3 11 -32 3z"/>
<path d="M6510 4920 c0 -5 5 -10 11 -10 5 0 7 5 4 10 -3 6 -8 10 -11 10 -2 0
-4 -4 -4 -10z"/>
<path d="M6140 4910 c0 -5 7 -10 15 -10 8 0 15 5 15 10 0 6 -7 10 -15 10 -8 0
-15 -4 -15 -10z"/>
<path d="M5066 4895 c-7 -20 43 -80 57 -66 7 7 6 16 -5 28 -8 10 -18 26 -21
36 -8 21 -23 22 -31 2z"/>
<path d="M6580 4880 c0 -5 9 -10 21 -10 11 0 17 5 14 10 -3 6 -13 10 -21 10
-8 0 -14 -4 -14 -10z"/>
<path d="M5200 4877 c0 -2 9 -21 20 -43 19 -38 19 -38 20 -11 0 16 -6 35 -14
43 -14 13 -26 18 -26 11z"/>
<path d="M5425 4870 c3 -5 8 -10 11 -10 2 0 4 5 4 10 0 6 -5 10 -11 10 -5 0
-7 -4 -4 -10z"/>
<path d="M4595 4830 c3 -5 8 -10 11 -10 2 0 4 5 4 10 0 6 -5 10 -11 10 -5 0
-7 -4 -4 -10z"/>
<path d="M4960 4810 c0 -9 39 -25 46 -18 2 3 -7 10 -21 16 -14 6 -25 7 -25 2z"/>
<path d="M6768 4814 c-14 -13 6 -44 28 -44 37 0 38 -19 2 -36 l-33 -15 40 5
c22 3 46 6 53 6 8 0 5 10 -10 30 -12 17 -28 30 -35 30 -7 0 -13 7 -13 15 0 15
-21 21 -32 9z"/>
<path d="M4626 4798 c3 -5 10 -6 15 -3 13 9 11 12 -6 12 -8 0 -12 -4 -9 -9z"/>
<path d="M5133 4773 c-17 -36 -16 -47 5 -66 15 -14 19 -14 40 3 12 10 22 28
22 39 0 24 -10 27 -28 9 -9 -9 -12 -6 -12 15 0 34 -11 34 -27 0z"/>
<path d="M5240 4770 c0 -11 2 -20 4 -20 2 0 11 -3 20 -6 23 -9 20 19 -4 34
-18 11 -20 10 -20 -8z"/>
<path d="M6180 4780 c0 -5 7 -10 16 -10 8 0 12 5 9 10 -3 6 -10 10 -16 10 -5
0 -9 -4 -9 -10z"/>
<path d="M4786 4771 c-4 -7 -5 -15 -2 -18 9 -9 19 4 14 18 -4 11 -6 11 -12 0z"/>
<path d="M5025 4770 c3 -5 8 -10 11 -10 2 0 4 5 4 10 0 6 -5 10 -11 10 -5 0
-7 -4 -4 -10z"/>
<path d="M5900 4740 c0 -5 7 -10 15 -10 8 0 15 5 15 10 0 6 -7 10 -15 10 -8 0
-15 -4 -15 -10z"/>
<path d="M5960 4740 c0 -5 5 -10 10 -10 6 0 10 5 10 10 0 6 -4 10 -10 10 -5 0
-10 -4 -10 -10z"/>
<path d="M6028 4743 c7 -3 16 -2 19 1 4 3 -2 6 -13 5 -11 0 -14 -3 -6 -6z"/>
<path d="M5756 4715 c4 -8 10 -15 15 -15 5 0 9 7 9 15 0 8 -7 15 -15 15 -9 0
-12 -6 -9 -15z"/>
<path d="M5275 4706 c-6 -13 -5 -21 3 -24 7 -2 12 -10 12 -18 0 -11 -11 -13
-57 -8 -32 4 -64 12 -71 17 -29 23 -152 -7 -152 -36 0 -5 24 -7 52 -5 29 3 63
1 76 -5 17 -8 29 -8 43 1 10 7 19 9 19 5 0 -7 136 -7 175 -1 6 1 23 -2 38 -6
20 -5 27 -3 27 8 0 20 -24 26 -58 16 -24 -6 -36 -4 -61 13 -16 12 -32 31 -34
42 -3 20 -4 20 -12 1z"/>
<path d="M4595 4680 c-3 -5 3 -10 14 -10 12 0 21 5 21 10 0 6 -6 10 -14 10 -8
0 -18 -4 -21 -10z"/>
<path d="M5545 4660 c-7 -12 32 -12 60 0 16 7 13 9 -17 9 -20 1 -40 -3 -43 -9z"/>
<path d="M5905 4630 c3 -5 8 -10 11 -10 2 0 4 5 4 10 0 6 -5 10 -11 10 -5 0
-7 -4 -4 -10z"/>
<path d="M5687 4613 c-13 -12 -7 -23 13 -23 11 0 20 7 20 15 0 15 -21 21 -33
8z"/>
<path d="M5395 4596 c-22 -6 -45 -17 -52 -26 -11 -13 -12 -12 -13 8 0 15 -6
22 -19 22 -11 0 -21 -5 -23 -11 -2 -7 -12 -7 -29 -1 -54 21 -304 4 -321 -22
-15 -21 -7 -26 42 -26 37 0 50 -4 50 -14 0 -11 9 -13 35 -9 24 4 44 0 69 -15
40 -24 51 -16 41 28 -7 31 -23 38 -42 19 -7 -7 -12 -6 -16 5 -5 13 2 16 38 16
52 0 78 -20 69 -56 -4 -17 -2 -24 7 -24 22 0 40 16 37 31 -2 8 7 15 22 17 21
4 23 2 10 -13 -12 -14 -12 -18 1 -26 18 -12 45 -11 110 1 74 15 180 14 189 0
6 -9 9 -9 14 -1 8 12 26 6 26 -9 0 -6 -43 -9 -100 -7 -55 1 -100 -1 -100 -5 0
-4 -17 -9 -37 -11 -21 -2 -6 -4 32 -5 39 0 150 -3 248 -6 152 -5 179 -4 183 9
4 8 17 15 29 15 13 0 25 6 27 12 3 8 16 3 38 -15 20 -18 39 -26 49 -22 30 12
66 13 73 2 5 -9 10 -9 19 0 14 14 2 36 -17 29 -7 -3 -16 -1 -19 4 -4 6 -15 10
-26 10 -14 0 -19 7 -19 24 0 14 -4 28 -10 31 -5 3 -10 1 -10 -6 0 -9 -3 -9
-14 0 -14 12 -76 12 -76 0 0 -16 -35 -19 -46 -4 -11 15 -16 15 -41 3 -15 -8
-27 -20 -25 -27 5 -22 -19 -41 -50 -41 -23 0 -29 4 -26 18 2 9 10 18 18 18 8
1 21 2 28 3 6 0 12 6 12 11 0 6 -13 9 -28 8 -15 -1 -33 1 -39 5 -6 4 -14 -1
-17 -10 -5 -12 -9 -14 -18 -5 -7 7 -33 12 -59 12 -26 0 -50 4 -54 9 -3 6 -28
7 -55 4 -40 -5 -50 -3 -50 9 0 33 -23 45 -65 34z m-35 -56 c0 -5 -2 -10 -4
-10 -3 0 -8 5 -11 10 -3 6 -1 10 4 10 6 0 11 -4 11 -10z"/>
<path d="M5568 4603 c-16 -2 -28 -10 -28 -18 0 -19 64 -12 68 9 2 9 0 15 -5
15 -4 -1 -20 -4 -35 -6z"/>
<path d="M5650 4600 c0 -5 5 -10 11 -10 5 0 7 5 4 10 -3 6 -8 10 -11 10 -2 0
-4 -4 -4 -10z"/>
<path d="M4585 4470 c4 -6 11 -8 16 -5 14 9 11 15 -7 15 -8 0 -12 -5 -9 -10z"/>
<path d="M5104 4470 c-7 -6 -120 -20 -164 -20 -19 0 -42 -5 -50 -10 -13 -9
-13 -11 0 -20 21 -14 58 -12 105 6 22 8 93 17 158 21 65 3 114 10 110 14 -9 8
-152 17 -159 9z"/>
<path d="M6992 4460 c12 -18 48 -29 48 -14 0 10 -33 33 -48 34 -10 0 -10 -4 0
-20z"/>
<path d="M6150 4460 c-22 -14 -6 -22 50 -26 36 -2 50 0 48 8 -2 6 -15 12 -29
13 -13 1 -31 5 -39 8 -8 4 -22 3 -30 -3z"/>
<path d="M6788 4465 c-4 -4 2 -19 12 -33 11 -14 17 -28 14 -31 -4 -3 -9 0 -11
7 -4 10 -8 10 -19 1 -11 -9 -15 -8 -20 5 -7 19 -44 22 -44 4 0 -7 -9 -2 -20
12 -17 22 -20 23 -32 9 -11 -14 -29 -15 -137 -8 -69 5 -138 13 -153 18 -23 8
-30 7 -35 -5 -3 -8 -11 -13 -19 -10 -12 4 -41 -20 -33 -28 12 -11 49 -16 49
-7 0 18 32 12 51 -10 l18 -21 18 21 c18 21 53 29 53 11 0 -5 -8 -13 -17 -19
-14 -8 -15 -12 -6 -22 14 -14 43 4 43 27 0 9 12 14 35 14 19 0 35 -4 35 -10 0
-5 20 -10 44 -10 27 0 48 -6 56 -15 12 -14 16 -13 40 10 32 31 50 32 50 3 1
-23 1 -23 18 -3 21 25 52 21 52 -7 0 -11 8 -27 18 -34 10 -8 12 -13 5 -14 -7
0 -10 -7 -6 -16 3 -10 9 -12 15 -6 6 6 23 6 46 0 36 -10 54 -13 180 -24 41 -4
65 -11 69 -20 7 -19 29 -18 37 2 3 9 6 35 6 60 0 36 -3 43 -17 42 -36 -3 -63
2 -63 12 0 6 9 10 19 10 25 0 38 20 20 31 -8 5 -42 7 -76 4 -35 -2 -65 0 -68
6 -4 5 -16 9 -28 9 -12 0 -35 7 -51 15 -41 22 -63 20 -40 -2 17 -17 17 -18 -5
-21 -12 -2 -31 4 -40 12 -10 9 -25 14 -34 11 -9 -4 -17 0 -19 10 -1 9 -6 14
-10 10z m147 -100 c26 -21 27 -25 10 -25 -11 1 -28 7 -38 15 -11 7 -25 11 -33
8 -8 -3 -14 0 -14 5 0 9 15 17 40 20 3 1 19 -10 35 -23z"/>
<path d="M4515 4450 c-3 -5 1 -10 10 -10 9 0 13 5 10 10 -3 6 -8 10 -10 10 -2
0 -7 -4 -10 -10z"/>
<path d="M6040 4430 c0 -5 4 -10 9 -10 6 0 13 5 16 10 3 6 -1 10 -9 10 -9 0
-16 -4 -16 -10z"/>
<path d="M4828 4424 c-4 -3 -33 -7 -67 -9 -33 -2 -69 -9 -80 -15 -25 -13 -53
-14 -32 -1 8 5 -5 8 -35 6 -27 -1 -64 -3 -81 -4 -28 -1 -33 -5 -33 -26 0 -14
5 -25 10 -25 6 0 10 9 10 20 0 24 32 27 50 5 7 -9 21 -13 35 -9 17 4 24 0 28
-15 7 -26 22 -27 44 -1 19 22 44 26 71 9 14 -9 25 -6 55 14 21 14 43 27 49 29
6 2 8 10 4 16 -8 13 -19 15 -28 6z"/>
<path d="M4542 4361 c-16 -9 -1 -24 35 -35 18 -6 22 -4 17 8 -3 9 -12 16 -19
16 -7 0 -15 4 -17 10 -1 5 -9 6 -16 1z"/>
<path d="M6706 4285 c-24 -25 -55 -32 -109 -24 -36 4 -60 2 -79 -7 -16 -8 -29
-10 -33 -4 -7 11 -35 2 -35 -11 0 -5 14 -9 32 -9 17 0 59 -5 93 -11 60 -10 62
-12 61 -40 l-1 -29 -65 1 c-36 1 -55 4 -42 6 12 2 22 10 22 16 0 7 4 6 10 -3
8 -13 10 -13 10 2 0 19 -8 22 -123 37 -113 16 -127 15 -127 -10 0 -11 -4 -17
-10 -14 -6 4 -18 1 -27 -6 -13 -12 -20 -8 -48 24 -24 28 -40 37 -63 37 -17 0
-32 6 -34 12 -4 10 -10 10 -32 0 -15 -6 -58 -12 -96 -12 -39 0 -70 -4 -70 -9
0 -5 21 -18 48 -30 48 -22 68 -33 112 -61 18 -12 43 -16 85 -14 33 1 72 3 87
3 15 1 33 7 41 15 8 8 18 11 23 7 25 -22 248 -47 287 -32 21 8 36 8 61 -3 22
-9 38 -11 50 -4 10 5 27 7 39 4 27 -6 51 7 45 24 -5 15 -55 22 -77 11 -9 -4
-26 -5 -38 -2 -37 10 -11 33 38 35 36 1 43 4 41 19 -2 9 2 17 8 17 16 0 12 27
-6 34 -9 3 -27 6 -40 6 -21 0 -24 4 -19 20 8 24 2 25 -19 5z m-526 -129 c-8
-8 -13 -8 -18 0 -4 6 -24 14 -44 18 -21 4 -38 11 -38 16 0 5 17 10 38 12 42 4
82 -26 62 -46z"/>
<path d="M6796 4287 c3 -10 9 -15 12 -12 3 3 0 11 -7 18 -10 9 -11 8 -5 -6z"/>
<path d="M5543 4243 c-13 -2 -23 -9 -23 -15 0 -6 10 -8 22 -5 12 4 28 1 35 -5
17 -13 28 -4 20 17 -6 15 -13 16 -54 8z"/>
<path d="M5610 4231 c0 -25 183 -51 219 -31 14 7 22 6 31 -5 15 -18 40 -19 64
-2 16 12 16 15 3 26 -16 13 -317 25 -317 12z"/>
<path d="M6264 4225 c35 -18 33 -18 40 0 4 12 -3 15 -32 15 l-37 0 29 -15z"/>
<path d="M7107 4186 c-10 -10 -17 -12 -25 -4 -7 7 -16 -1 -31 -28 -14 -27 -20
-33 -21 -20 0 17 -5 15 -34 -13 l-34 -33 -5 28 -4 29 -2 -30 c-1 -25 5 -33 30
-44 29 -13 33 -12 55 12 13 14 24 31 24 37 0 15 19 12 36 -5 14 -13 19 -13 45
0 31 17 34 15 20 -13 -5 -9 -12 -25 -15 -35 -4 -13 -12 -16 -25 -12 -13 4 -20
0 -24 -14 -5 -20 -86 -51 -136 -51 -13 0 -33 -7 -43 -16 -14 -14 -20 -14 -33
-4 -13 10 -19 10 -33 -3 -22 -20 -55 -25 -73 -10 -20 16 -157 33 -204 24 l-40
-7 52 -7 c28 -4 53 -12 55 -18 2 -5 25 -11 52 -12 29 -2 53 -9 60 -18 6 -9 18
-18 26 -21 21 -7 63 9 55 22 -4 7 2 9 19 4 13 -3 31 -2 38 3 7 4 38 8 68 9 30
0 80 2 110 4 l55 3 -45 7 c-41 6 -39 7 30 9 41 2 69 5 63 8 -20 8 -15 23 7 23
17 0 20 7 20 45 0 28 -4 45 -12 45 -9 0 -9 3 0 12 16 16 15 45 0 51 -10 4 -9
8 2 17 12 9 10 11 -12 6 -14 -3 -34 -9 -45 -12 -10 -3 -14 -2 -7 3 6 4 13 16
17 26 8 21 -15 23 -36 3z"/>
<path d="M6977 4183 c-13 -12 -7 -23 12 -23 10 0 21 7 25 15 5 15 -24 22 -37
8z"/>
<path d="M6840 4140 c-12 -8 -12 -10 3 -16 21 -8 35 2 21 16 -5 5 -15 6 -24 0z"/>
<path d="M1637 4123 c-19 -22 -14 -53 8 -53 19 0 22 10 16 44 -6 28 -6 28 -24
9z"/>
<path d="M5975 4120 c-6 -10 69 -22 89 -14 9 3 13 10 10 15 -6 11 -93 9 -99
-1z"/>
<path d="M5235 4100 c-3 -5 -15 -15 -27 -21 -15 -8 -19 -8 -14 0 4 7 -1 11
-13 11 -11 0 -24 -6 -28 -12 -9 -15 -77 -48 -97 -48 -8 0 -19 -7 -27 -16 -9
-11 -22 -14 -41 -10 -18 3 -27 2 -23 -4 9 -14 57 -12 97 4 18 8 63 18 98 21
36 4 75 13 87 21 28 18 33 18 33 0 0 -9 15 -15 46 -18 68 -5 75 5 31 47 -41
39 -63 44 -70 18 -4 -17 -5 -17 -6 0 -1 18 -36 24 -46 7z"/>
<path d="M5907 4101 c-16 -6 -17 -9 -5 -18 10 -8 17 -8 30 1 28 20 10 31 -25
17z"/>
<path d="M5835 4090 c-3 -5 1 -10 9 -10 9 0 16 5 16 10 0 6 -4 10 -9 10 -6 0
-13 -4 -16 -10z"/>
<path d="M7070 4090 c0 -5 5 -10 10 -10 6 0 10 5 10 10 0 6 -4 10 -10 10 -5 0
-10 -4 -10 -10z"/>
<path d="M1357 4083 c-4 -3 -7 -19 -7 -35 0 -25 4 -28 31 -28 17 0 28 4 24 10
-3 6 -12 10 -19 10 -9 0 -12 9 -8 25 4 24 -7 33 -21 18z"/>
<path d="M5760 4080 c0 -5 5 -10 10 -10 6 0 10 5 10 10 0 6 -4 10 -10 10 -5 0
-10 -4 -10 -10z"/>
<path d="M1568 4053 c7 -3 16 -2 19 1 4 3 -2 6 -13 5 -11 0 -14 -3 -6 -6z"/>
<path d="M1600 4056 c0 -2 7 -6 15 -10 8 -3 15 -1 15 4 0 6 -7 10 -15 10 -8 0
-15 -2 -15 -4z"/>
<path d="M5452 4040 c-11 -18 -10 -20 18 -20 23 0 30 4 30 20 0 12 -7 20 -18
20 -9 0 -23 -9 -30 -20z"/>
<path d="M5530 4050 c20 -13 53 -13 45 0 -3 6 -18 10 -33 10 -21 0 -24 -2 -12
-10z"/>
<path d="M1626 4013 c-6 -14 -5 -15 5 -6 7 7 10 15 7 18 -3 3 -9 -2 -12 -12z"/>
<path d="M1280 4005 c0 -20 24 -45 42 -45 17 0 19 2 8 16 -15 17 -50 38 -50
29z"/>
<path d="M4774 3995 c11 -8 22 -12 25 -9 6 6 -19 24 -34 24 -5 -1 -1 -7 9 -15z"/>
<path d="M4705 3970 c-19 -7 -19 -8 -2 -15 10 -4 16 -14 13 -21 -3 -7 -1 -16
4 -19 6 -4 10 -1 10 4 0 6 18 11 40 11 22 0 40 5 40 10 0 6 -21 10 -46 10 -37
0 -45 3 -40 15 3 8 4 15 3 14 -1 0 -11 -4 -22 -9z"/>
<path d="M4864 3965 c-19 -14 -19 -14 2 -15 11 0 29 7 40 15 19 14 19 14 -2
15 -11 0 -29 -7 -40 -15z"/>
<path d="M6413 3973 c9 -2 23 -2 30 0 6 3 -1 5 -18 5 -16 0 -22 -2 -12 -5z"/>
<path d="M6098 3953 c12 -2 32 -2 45 0 12 2 2 4 -23 4 -25 0 -35 -2 -22 -4z"/>
<path d="M6320 3950 c0 -6 7 -10 15 -10 8 0 15 2 15 4 0 2 -7 6 -15 10 -8 3
-15 1 -15 -4z"/>
<path d="M6488 3933 c7 -3 16 -2 19 1 4 3 -2 6 -13 5 -11 0 -14 -3 -6 -6z"/>
<path d="M4637 3924 c-9 -10 2 -24 18 -24 9 0 12 6 9 15 -6 16 -17 19 -27 9z"/>
<path d="M6400 3900 c0 -5 9 -10 21 -10 11 0 17 5 14 10 -3 6 -13 10 -21 10
-8 0 -14 -4 -14 -10z"/>
<path d="M7090 3883 c-72 -9 -54 -23 28 -23 66 0 82 3 82 15 0 15 -28 17 -110
8z"/>
<path d="M6900 3860 c0 -6 7 -10 15 -10 8 0 15 2 15 4 0 2 -7 6 -15 10 -8 3
-15 1 -15 -4z"/>
<path d="M1575 3850 c-3 -5 -1 -10 4 -10 6 0 11 5 11 10 0 6 -2 10 -4 10 -3 0
-8 -4 -11 -10z"/>
<path d="M6945 3850 c3 -5 15 -10 25 -10 10 0 22 5 25 10 4 6 -7 10 -25 10
-18 0 -29 -4 -25 -10z"/>
<path d="M5955 3840 c-3 -5 1 -10 9 -10 9 0 16 5 16 10 0 6 -4 10 -9 10 -6 0
-13 -4 -16 -10z"/>
<path d="M6408 3843 c7 -3 16 -2 19 1 4 3 -2 6 -13 5 -11 0 -14 -3 -6 -6z"/>
<path d="M6783 3833 c15 -2 39 -2 55 0 15 2 2 4 -28 4 -30 0 -43 -2 -27 -4z"/>
<path d="M6583 3813 c15 -2 39 -2 55 0 15 2 2 4 -28 4 -30 0 -43 -2 -27 -4z"/>
<path d="M6382 3791 c-11 -7 -11 -9 1 -14 8 -3 23 1 34 8 17 14 17 14 -2 15
-11 0 -26 -4 -33 -9z"/>
<path d="M6226 3769 c-14 -9 -15 -13 -5 -19 14 -9 49 5 49 20 0 13 -20 12 -44
-1z"/>
<path d="M4408 3763 c6 -2 18 -2 25 0 6 3 1 5 -13 5 -14 0 -19 -2 -12 -5z"/>
<path d="M6328 3763 c7 -3 16 -2 19 1 4 3 -2 6 -13 5 -11 0 -14 -3 -6 -6z"/>
<path d="M4998 3736 c19 -17 36 -23 50 -19 31 8 27 17 -11 31 -57 21 -73 16
-39 -12z"/>
<path d="M2938 3733 c-28 -4 -40 -23 -15 -23 6 0 22 -3 35 -6 19 -5 21 -3 15
12 -6 16 -5 17 9 6 11 -9 18 -10 23 -2 3 5 2 10 -4 10 -5 0 -15 2 -23 3 -7 2
-25 2 -40 0z"/>
<path d="M5069 3690 c-10 -7 -6 -12 16 -22 17 -7 41 -21 55 -30 30 -20 81 -27
87 -12 2 7 -16 14 -46 18 -34 4 -54 13 -61 25 -12 23 -33 32 -51 21z"/>
<path d="M5648 3673 c6 -2 18 -2 25 0 6 3 1 5 -13 5 -14 0 -19 -2 -12 -5z"/>
<path d="M5440 3660 c0 -5 5 -10 10 -10 6 0 10 5 10 10 0 6 -4 10 -10 10 -5 0
-10 -4 -10 -10z"/>
<path d="M3890 3644 c0 -8 5 -12 10 -9 6 3 10 10 10 16 0 5 -4 9 -10 9 -5 0
-10 -7 -10 -16z"/>
<path d="M5398 3653 c7 -3 16 -2 19 1 4 3 -2 6 -13 5 -11 0 -14 -3 -6 -6z"/>
<path d="M3975 3620 c-8 -13 35 -13 55 0 11 7 7 10 -17 10 -17 0 -35 -4 -38
-10z"/>
<path d="M3805 3600 c-8 -13 25 -13 45 0 12 8 9 10 -12 10 -15 0 -30 -4 -33
-10z"/>
<path d="M6945 3600 c-22 -9 -20 -11 10 -15 11 -2 27 -6 36 -9 9 -4 25 1 38
11 22 18 22 18 -21 20 -24 1 -52 -2 -63 -7z"/>
<path d="M7080 3585 c-21 -26 -5 -45 37 -43 21 2 48 -1 61 -5 20 -8 22 -5 22
27 l0 36 -54 0 c-35 0 -58 -5 -66 -15z"/>
<path d="M5265 3470 c-7 -11 20 -20 58 -20 18 0 39 -4 46 -9 12 -8 8 -11 -15
-17 -16 -4 -33 -10 -39 -14 -5 -4 -41 -17 -80 -30 -38 -12 -80 -33 -93 -46
-12 -13 -29 -21 -36 -18 -15 6 -106 -61 -136 -99 -9 -12 -24 -53 -33 -92 -38
-160 -57 -244 -67 -305 -18 -106 -33 -174 -41 -185 -4 -6 -9 -28 -11 -50 l-3
-40 -90 2 c-49 0 -126 4 -169 7 l-80 7 27 -21 c14 -12 37 -20 49 -19 13 1 47
1 76 1 45 -2 52 -5 52 -22 0 -11 4 -20 9 -20 5 0 11 9 14 20 4 17 14 20 56 20
l51 0 25 -51 c24 -46 24 -49 6 -39 -11 5 -24 18 -29 27 -6 10 -16 14 -26 10
-10 -4 -15 -11 -12 -15 3 -5 6 -42 7 -82 2 -71 13 -100 38 -100 6 0 11 6 11
14 0 8 5 18 12 22 7 5 9 0 6 -14 -4 -12 0 -26 8 -33 11 -9 14 -8 14 5 0 12 6
15 25 10 22 -5 25 -3 25 22 0 23 2 26 10 14 8 -12 12 -12 18 -2 7 10 20 8 63
-12 137 -62 291 -110 449 -140 300 -57 750 -60 995 -6 89 19 292 86 309 101
13 12 56 -12 56 -31 0 -9 9 -25 20 -35 11 -10 20 -21 20 -25 0 -9 -52 -34 -64
-31 -10 2 -44 -9 -139 -48 -19 -7 -76 -9 -175 -4 -159 6 -304 -8 -357 -35 -16
-8 -36 -18 -44 -22 -29 -13 -20 -26 47 -58 37 -19 75 -38 84 -43 10 -5 42 -12
73 -15 49 -6 55 -9 55 -30 0 -16 4 -22 14 -18 8 3 17 1 20 -5 7 -10 54 9 65
27 7 12 23 15 77 13 32 -1 49 -8 78 -36 21 -19 42 -33 47 -30 5 4 6 -1 3 -9
-3 -9 -2 -16 4 -16 12 0 22 24 22 50 0 24 31 34 83 26 58 -9 129 6 156 33 13
13 22 36 24 61 3 49 13 39 21 -20 7 -56 12 -92 24 -153 7 -36 6 -50 -5 -58 -7
-6 -13 -21 -13 -33 0 -12 -7 -31 -15 -43 -18 -25 -6 -38 25 -28 17 6 20 12 15
43 -5 27 -4 33 4 22 5 -8 13 -44 17 -80 3 -36 10 -72 15 -80 13 -23 11 19 -6
130 -64 428 -68 457 -61 468 5 8 -6 147 -20 242 -16 116 -34 306 -29 318 4 11
15 13 40 9 26 -4 35 -2 35 9 0 9 -11 14 -35 14 -45 0 -51 15 -73 168 -11 81
-13 118 -5 130 6 10 7 28 3 42 -4 14 -13 44 -20 68 -7 23 -17 42 -22 42 -4 0
-8 6 -8 13 0 8 -9 22 -20 32 -11 10 -20 27 -20 37 0 13 -15 25 -47 38 -27 11
-56 24 -65 30 -10 5 -26 10 -35 10 -10 0 -32 9 -49 19 -32 19 -145 53 -219 66
-22 4 -42 11 -45 15 -3 5 -57 12 -120 15 -63 4 -118 9 -122 11 -11 7 -369 4
-483 -3 -139 -10 -240 -8 -288 5 -20 6 -39 7 -42 2z m606 -50 c11 0 18 -4 15
-9 -3 -5 31 -11 77 -15 210 -17 265 -29 399 -86 82 -35 79 -34 72 -15 -8 20
12 19 44 -4 15 -10 39 -21 55 -25 18 -4 27 -13 27 -26 0 -21 24 -27 35 -10 7
12 25 4 25 -11 0 -5 -7 -9 -15 -9 -8 0 -15 -6 -15 -14 0 -8 7 -16 15 -20 17
-6 20 -42 5 -51 -6 -4 -8 -11 -5 -16 13 -20 -7 -30 -26 -13 -15 13 -19 14 -19
3 0 -8 -3 -23 -6 -34 -4 -17 2 -22 40 -34 26 -7 46 -15 46 -18 0 -3 -10 -13
-22 -24 -26 -21 -58 -25 -58 -6 0 6 -9 23 -20 37 -11 14 -20 33 -20 42 0 9 -6
18 -12 21 -10 3 -10 7 1 20 12 15 11 17 -8 17 -11 0 -21 6 -22 13 0 10 -2 10
-6 0 -7 -19 -27 -16 -48 7 -14 16 -16 23 -7 32 17 17 15 33 -3 18 -8 -7 -15
-19 -15 -27 0 -8 -5 -11 -10 -8 -6 4 -8 10 -5 15 10 16 -14 21 -35 8 -18 -11
-23 -10 -33 2 -15 20 -137 40 -297 50 -100 6 -127 5 -136 -6 -15 -19 -44 -18
-44 1 0 8 -4 15 -10 15 -15 0 -12 -30 5 -47 22 -21 13 -26 -26 -14 -19 5 -28
10 -21 10 17 1 15 48 -2 54 -7 3 -89 3 -182 0 -162 -4 -172 -6 -228 -34 -33
-16 -69 -29 -82 -29 -16 0 -24 -7 -26 -22 -2 -15 -11 -24 -24 -26 -12 -2 -24
-12 -27 -23 -4 -14 -14 -19 -39 -20 -18 -1 -25 -3 -15 -6 30 -8 12 -28 -22
-26 -48 2 -84 44 -75 89 3 19 13 41 20 49 11 10 11 14 1 18 -6 2 -9 8 -5 12 4
4 14 3 21 -3 18 -15 30 -3 15 15 -16 20 -2 28 17 9 9 -9 25 -16 36 -16 16 0
18 3 9 19 -5 11 -15 21 -22 24 -15 4 43 37 67 37 8 0 15 4 15 8 0 10 155 49
227 57 31 3 54 1 58 -5 10 -15 35 -12 35 5 0 20 15 19 36 -2 15 -15 17 -16 12
-2 -5 13 3 18 45 23 29 3 79 6 112 7 51 1 55 3 25 9 l-35 7 35 5 c19 2 41 3
48 1 8 -1 23 -3 33 -3z m82 -7 c-7 -2 -19 -2 -25 0 -7 3 -2 5 12 5 14 0 19 -2
13 -5z m512 -73 c-3 -5 -10 -10 -16 -10 -5 0 -9 5 -9 10 0 6 7 10 16 10 8 0
12 -4 9 -10z m75 -30 c0 -5 -4 -10 -9 -10 -6 0 -13 5 -16 10 -3 6 1 10 9 10 9
0 16 -4 16 -10z m-830 -96 c0 -2 -15 -4 -32 -3 -27 0 -29 2 -13 8 18 8 45 4
45 -5z m210 -24 c0 -5 -4 -10 -10 -10 -5 0 -10 5 -10 10 0 6 5 10 10 10 6 0
10 -4 10 -10z m885 -20 c3 -5 1 -10 -4 -10 -6 0 -11 5 -11 10 0 6 2 10 4 10 3
0 8 -4 11 -10z m-1220 -120 c22 -11 47 -18 56 -15 10 3 20 2 23 -3 2 -4 85 -9
183 -11 240 -3 533 -37 533 -62 0 -5 7 -9 16 -9 8 0 13 -4 10 -9 -3 -5 -54
-12 -113 -16 -60 -3 -137 -9 -173 -13 -93 -10 -255 -6 -346 9 -107 16 -121 18
-184 25 -30 3 -72 12 -93 20 -20 8 -49 14 -63 14 -29 0 -84 26 -84 40 0 5 4
11 10 15 5 3 7 12 3 20 -9 25 171 21 222 -5z m735 -30 c0 -5 -4 -10 -9 -10 -6
0 -13 5 -16 10 -3 6 1 10 9 10 9 0 16 -4 16 -10z m193 -14 c57 -13 42 -36 -24
-36 -25 0 -159 37 -159 44 0 5 149 -1 183 -8z m-1413 -46 c0 -14 5 -18 18 -13
9 4 20 11 24 17 16 23 18 -4 4 -39 -9 -20 -13 -42 -9 -48 3 -6 1 -7 -5 -3 -7
4 -12 2 -12 -4 0 -6 -5 -8 -10 -5 -6 4 -8 11 -5 16 8 12 -4 49 -16 49 -13 0
-11 -37 4 -61 10 -17 9 -22 -5 -33 -20 -15 -24 -36 -7 -36 7 0 18 8 25 18 12
15 13 15 14 1 0 -9 -7 -20 -16 -23 -10 -4 -13 -13 -9 -25 3 -10 -1 -24 -10
-31 -8 -7 -15 -20 -15 -30 0 -9 -9 -25 -20 -35 -12 -11 -20 -13 -20 -6 0 6
-11 16 -25 21 -14 5 -26 14 -26 20 -2 12 -4 21 -11 40 -14 36 -15 60 -3 70 9
8 14 5 18 -11 7 -28 32 -19 32 12 0 17 5 24 18 23 13 -1 17 6 17 36 0 66 11
100 31 100 12 0 19 -7 19 -20z m-85 -19 c-3 -10 -8 -33 -10 -51 -4 -31 -14
-53 -16 -34 0 5 -2 18 -4 28 -2 11 4 33 13 48 19 32 26 36 17 9z m215 -1 c0
-5 -9 -10 -20 -10 -11 0 -20 5 -20 10 0 6 9 10 20 10 11 0 20 -4 20 -10z
m-193 -42 c-3 -8 -6 -5 -6 6 -1 11 2 17 5 13 3 -3 4 -12 1 -19z m1527 -84 c-8
-6 -14 -16 -14 -23 0 -6 -4 -11 -10 -11 -5 0 -10 6 -10 13 0 7 -14 23 -30 36
-34 25 -65 21 -75 -10 -8 -25 -35 -25 -35 1 0 11 -7 20 -15 20 -31 0 -14 19
23 25 20 4 64 12 97 19 l60 12 11 -36 c10 -28 9 -37 -2 -46z m-1067 66 c26 -5
82 -11 123 -14 317 -19 481 -26 583 -24 65 2 121 0 124 -5 2 -4 2 -21 -2 -37
-5 -23 -12 -30 -30 -30 -13 0 -28 -6 -32 -13 -12 -20 -52 -27 -74 -14 -16 10
-21 9 -29 -3 -8 -13 -10 -12 -10 3 0 20 -12 22 -41 5 -17 -10 -23 -10 -26 -1
-3 10 -13 9 -41 -3 -73 -31 -120 -42 -131 -31 -8 8 -11 6 -11 -5 0 -12 15 -20
53 -28 54 -11 152 -62 141 -73 -9 -8 125 -42 276 -67 35 -7 76 -20 90 -30 15
-11 52 -20 95 -23 89 -7 109 -15 94 -33 -8 -10 -7 -17 5 -30 33 -32 35 -48 11
-67 -15 -10 -26 -13 -30 -7 -3 5 -28 10 -56 10 -27 0 -49 4 -49 8 0 5 -19 15
-42 22 -24 8 -47 17 -53 21 -16 11 -261 39 -395 45 -54 2 -60 3 -60 14 0 6 9
10 20 10 11 0 20 4 20 8 0 11 -70 33 -82 26 -16 -10 -8 -24 15 -25 12 0 17 -3
10 -5 -18 -8 12 -56 44 -69 15 -6 56 -18 91 -25 48 -11 62 -18 62 -32 0 -10 5
-18 10 -18 6 0 10 7 10 15 0 21 48 24 61 3 4 -6 12 -7 18 -3 8 4 16 -4 23 -23
8 -19 23 -33 45 -41 54 -20 40 -39 -27 -37 -19 1 -42 -5 -50 -13 -13 -13 -11
-14 13 -7 16 4 27 2 27 -3 0 -20 -42 -32 -126 -34 -63 -2 -89 -6 -97 -17 -20
-26 -88 -40 -203 -42 -139 -3 -264 18 -264 44 0 10 6 18 13 18 6 0 31 10 55
22 30 17 42 29 42 45 0 16 6 23 19 23 11 0 23 5 27 11 5 9 -10 10 -57 4 -35
-4 -77 -9 -92 -11 -33 -2 -75 -38 -88 -73 -8 -20 -15 -23 -48 -19 -22 2 -37 0
-35 -4 9 -15 -185 24 -241 48 -27 12 -21 13 70 14 97 1 164 17 136 34 -6 4
-16 4 -22 1 -6 -4 -30 -2 -54 5 -44 12 -44 13 -30 39 7 15 13 36 12 46 -2 17
6 21 53 25 52 5 112 29 124 49 11 17 -26 19 -216 13 -59 -2 -68 -4 -68 -21 0
-19 -25 -31 -68 -31 -13 0 -21 -4 -18 -9 3 -4 -3 -19 -14 -31 -11 -12 -22 -30
-25 -40 -7 -21 -57 -33 -67 -17 -10 17 0 27 28 27 13 0 24 4 24 9 0 6 -8 8
-17 6 -10 -2 -33 -7 -50 -11 -34 -7 -49 11 -15 19 9 2 2 2 -15 0 -31 -4 -33
-2 -33 27 0 20 -4 29 -11 24 -6 -3 -15 0 -20 7 -13 21 -11 26 11 32 11 3 20
10 20 16 0 6 -8 8 -17 5 -12 -4 -8 4 10 20 41 38 140 35 150 -5 3 -10 10 -19
16 -19 6 0 8 7 5 15 -7 18 16 23 128 28 94 4 115 11 76 26 -36 13 -176 33
-187 26 -6 -3 -19 0 -30 7 -14 9 -26 9 -43 1 -48 -22 -73 23 -27 48 20 10 72
2 64 -11 -9 -14 28 -21 59 -10 27 9 303 30 421 32 22 0 32 2 23 5 -37 9 -16
23 35 23 67 0 104 9 85 22 -8 5 2 7 27 3 28 -4 34 -3 20 4 -18 8 -19 9 -2 16
25 11 21 22 -14 34 -25 9 -29 14 -20 24 15 19 4 27 -29 21 -15 -4 -40 1 -57 9
-19 10 -34 12 -44 6 -21 -13 -81 -10 -109 6 -14 8 -40 14 -57 15 -28 0 -33 4
-33 23 0 13 3 27 7 30 9 10 54 9 110 -3z m1143 -140 c0 -6 -15 -7 -37 -4 -52
8 -54 14 -5 14 23 0 42 -4 42 -10z m35 -9 c-3 -5 -1 -12 5 -16 12 -7 13 -25 2
-25 -5 0 -14 11 -20 25 -10 21 -9 25 4 25 8 0 13 -4 9 -9z m-55 -46 c11 7 50
-30 50 -47 0 -4 9 -8 21 -8 14 0 19 -5 16 -14 -3 -7 0 -19 6 -26 9 -10 9 -14
-2 -17 -11 -5 -11 -7 0 -14 9 -6 2 -9 -23 -9 -20 0 -40 5 -43 10 -3 6 3 10 14
10 12 0 21 5 21 10 0 6 -15 8 -37 4 -34 -5 -39 -3 -50 22 -7 16 -13 43 -13 62
0 29 2 33 15 22 8 -6 19 -9 25 -5z m-1690 -115 c0 -11 -42 -31 -49 -24 -5 5
30 33 42 34 4 0 7 -5 7 -10z m130 6 c0 -2 -7 -7 -16 -10 -8 -3 -12 -2 -9 4 6
10 25 14 25 6z m1616 -52 c18 -15 17 -15 -15 -10 -18 3 -42 6 -52 6 -11 0 -19
5 -19 10 0 16 64 12 86 -6z m214 -116 c0 -42 -18 -80 -37 -76 -25 5 -26 22 -3
48 11 13 20 37 20 54 0 24 3 27 10 16 5 -8 10 -27 10 -42z m-1580 22 c-20 -13
-43 -13 -35 0 3 6 16 10 28 10 18 0 19 -2 7 -10z m1510 -50 c0 -5 -4 -12 -10
-15 -5 -3 -10 -4 -10 -1 0 2 -3 12 -6 20 -5 12 -2 15 10 10 9 -3 16 -10 16
-14z m-1686 -91 c-3 -5 2 -9 10 -9 9 0 16 5 16 11 0 6 9 9 20 6 10 -3 21 0 23
6 2 6 14 7 32 3 38 -10 15 -26 -37 -26 -20 0 -38 -5 -40 -12 -3 -8 -9 -8 -23
-1 -22 13 -30 44 -9 36 8 -3 11 -9 8 -14z m1373 5 c-3 -3 -12 -4 -19 -1 -8 3
-5 6 6 6 11 1 17 -2 13 -5z m123 -14 c0 -5 9 -10 19 -10 19 0 35 -23 24 -34
-13 -13 -91 3 -123 24 -13 9 -13 11 0 20 20 13 80 13 80 0z m-155 -34 c22 -3
51 -13 75 -25 28 -15 5 -26 -50 -24 -40 1 -48 -1 -30 -7 28 -9 19 -13 -25 -11
-41 2 -86 21 -79 33 3 5 13 7 21 4 11 -5 13 -2 9 10 -9 25 4 37 33 29 14 -3
35 -7 46 -9z m-886 -62 c2 -2 2 -6 0 -9 -8 -7 -49 7 -49 17 0 8 38 2 49 -8z
m1262 -69 c-1 -15 -24 -12 -29 3 -3 9 2 13 12 10 10 -1 17 -7 17 -13z m-46
-15 c3 -5 16 -10 28 -10 15 0 18 -3 10 -11 -13 -13 -75 9 -67 23 7 11 22 10
29 -2z m-161 -246 c3 -8 2 -12 -4 -9 -6 3 -10 10 -10 16 0 14 7 11 14 -7z"/>
<path d="M5413 3315 c-9 -16 -13 -17 -27 -6 -14 12 -16 10 -16 -13 0 -18 5
-26 18 -26 29 0 44 16 40 41 -3 23 -4 23 -15 4z"/>
<path d="M5265 3313 c-11 -3 -27 -11 -35 -18 -8 -7 -24 -15 -35 -18 -11 -2 -3
-3 18 -1 20 3 37 1 36 -3 -3 -21 2 -33 16 -33 17 0 20 26 4 36 -13 8 7 24 30
24 11 0 11 -3 1 -15 -16 -20 7 -29 41 -16 l24 9 -27 11 c-16 6 -28 15 -28 21
0 10 -11 11 -45 3z"/>
<path d="M6300 3220 c0 -5 5 -10 10 -10 6 0 10 5 10 10 0 6 -4 10 -10 10 -5 0
-10 -4 -10 -10z"/>
<path d="M5270 3200 c0 -6 7 -10 15 -10 8 0 15 2 15 4 0 2 -7 6 -15 10 -8 3
-15 1 -15 -4z"/>
<path d="M6535 3080 c3 -5 8 -10 11 -10 2 0 4 5 4 10 0 6 -5 10 -11 10 -5 0
-7 -4 -4 -10z"/>
<path d="M5600 2649 c0 -5 5 -7 10 -4 6 3 10 8 10 11 0 2 -4 4 -10 4 -5 0 -10
-5 -10 -11z"/>
<path d="M5902 2493 c2 -10 12 -19 23 -20 11 -2 14 0 8 3 -7 3 -13 12 -13 20
0 8 -5 14 -11 14 -6 0 -9 -8 -7 -17z"/>
<path d="M5035 2490 c4 -6 11 -8 16 -5 14 9 11 15 -7 15 -8 0 -12 -5 -9 -10z"/>
<path d="M5021 2466 c-16 -19 -23 -63 -12 -70 6 -4 11 -2 11 3 0 6 14 11 30
11 23 0 30 4 28 16 -2 12 8 16 45 19 52 3 63 8 53 24 -4 6 -15 7 -29 2 -12 -5
-43 -5 -70 -1 -30 4 -50 3 -56 -4z"/>
<path d="M5320 2369 c0 -11 4 -18 10 -14 5 3 7 12 3 20 -7 21 -13 19 -13 -6z"/>
<path d="M5810 2325 c0 -19 10 -19 46 0 l29 15 -37 0 c-27 0 -38 -4 -38 -15z"/>
<path d="M4410 3320 c-12 -8 -10 -10 8 -10 13 0 20 4 17 10 -7 12 -6 12 -25 0z"/>
<path d="M541 3052 c-13 -24 -2 -36 16 -17 6 6 7 18 3 25 -6 9 -11 7 -19 -8z"/>
<path d="M7018 3033 c7 -3 16 -2 19 1 4 3 -2 6 -13 5 -11 0 -14 -3 -6 -6z"/>
<path d="M7080 3020 c0 -5 18 -10 39 -10 22 0 43 5 46 10 4 6 -12 10 -39 10
-25 0 -46 -4 -46 -10z"/>
<path d="M550 2990 c0 -23 26 -38 41 -23 7 7 1 16 -15 27 -25 16 -26 16 -26
-4z"/>
<path d="M2970 2834 c0 -9 7 -14 17 -12 25 5 28 28 4 28 -12 0 -21 -6 -21 -16z"/>
<path d="M4440 2702 c0 -18 66 -34 107 -26 l38 8 -40 9 c-81 17 -105 19 -105
9z"/>
<path d="M2540 2680 c0 -5 7 -10 16 -10 8 0 12 5 9 10 -3 6 -10 10 -16 10 -5
0 -9 -4 -9 -10z"/>
<path d="M3170 2661 c0 -25 6 -27 13 -6 4 8 2 17 -3 20 -6 4 -10 -3 -10 -14z"/>
<path d="M4790 2656 c0 -2 7 -6 15 -10 8 -3 15 -1 15 4 0 6 -7 10 -15 10 -8 0
-15 -2 -15 -4z"/>
<path d="M2420 2571 c0 -5 -8 -11 -17 -13 -10 -2 -13 -6 -8 -10 6 -3 18 0 28
7 12 8 14 15 8 20 -6 3 -11 2 -11 -4z"/>
<path d="M4745 2500 c-4 -6 7 -10 24 -10 17 0 31 5 31 10 0 6 -11 10 -24 10
-14 0 -28 -4 -31 -10z"/>
<path d="M3238 2403 c7 -3 16 -2 19 1 4 3 -2 6 -13 5 -11 0 -14 -3 -6 -6z"/>
<path d="M3071 2351 c-29 -10 -63 -29 -75 -41 l-21 -22 30 7 c17 3 47 9 67 12
26 3 35 9 31 19 -3 8 -1 14 4 14 5 0 18 7 29 15 27 20 2 19 -65 -4z"/>
<path d="M3158 2323 c7 -3 16 -2 19 1 4 3 -2 6 -13 5 -11 0 -14 -3 -6 -6z"/>
<path d="M4491 2291 c-11 -7 -7 -13 17 -25 17 -9 40 -16 51 -16 10 0 21 -4 23
-9 4 -12 144 -29 159 -20 16 10 0 32 -18 25 -9 -4 -30 -2 -47 3 -17 6 -53 17
-81 25 -27 7 -59 17 -70 20 -11 3 -26 2 -34 -3z"/>
<path d="M4205 2240 c-38 -4 -113 -17 -165 -28 -52 -12 -119 -24 -148 -28 -35
-4 -75 -20 -118 -46 -36 -22 -74 -40 -85 -41 -10 -1 -19 -9 -19 -18 0 -21 26
-44 34 -30 4 6 14 7 22 4 10 -4 17 2 21 16 3 12 18 28 34 37 16 8 29 19 29 24
0 6 10 10 23 10 12 0 56 7 97 16 50 10 95 13 137 8 37 -4 63 -2 63 3 0 5 26 9
58 10 83 0 164 14 180 29 7 8 29 14 47 14 31 0 35 -3 39 -32 8 -54 4 -68 -26
-96 -36 -34 -36 -47 0 -28 44 23 71 62 77 111 5 35 2 46 -12 53 -26 13 -205
20 -288 12z"/>
<path d="M3040 2220 c0 -5 5 -10 11 -10 5 0 7 5 4 10 -3 6 -8 10 -11 10 -2 0
-4 -4 -4 -10z"/>
<path d="M3095 2190 c3 -5 22 -10 41 -10 19 0 34 5 34 10 0 6 -18 10 -41 10
-24 0 -38 -4 -34 -10z"/>
<path d="M3208 2183 c7 -3 16 -2 19 1 4 3 -2 6 -13 5 -11 0 -14 -3 -6 -6z"/>
<path d="M4720 2176 c0 -8 5 -18 10 -21 6 -3 10 3 10 14 0 12 -4 21 -10 21 -5
0 -10 -6 -10 -14z"/>
<path d="M7110 2130 c0 -5 5 -10 11 -10 5 0 7 5 4 10 -3 6 -8 10 -11 10 -2 0
-4 -4 -4 -10z"/>
<path d="M4714 2118 c-4 -7 -9 -19 -11 -28 -11 -69 -33 -172 -38 -180 -3 -6
-15 -10 -26 -10 -11 0 -17 -5 -14 -10 4 -6 11 -8 16 -5 5 4 9 -19 10 -52 0
-32 4 -80 9 -108 5 -32 4 -55 -2 -62 -14 -17 -87 -16 -118 2 -32 18 -40 18
-40 0 0 -9 11 -20 24 -25 13 -5 27 -13 30 -19 4 -6 13 -8 20 -5 26 10 28 -17
6 -68 -12 -28 -19 -60 -17 -72 3 -12 10 -38 15 -58 8 -30 7 -38 -3 -38 -7 0
-15 6 -17 12 -3 7 -10 -15 -17 -50 -8 -41 -17 -62 -26 -62 -11 0 -12 -6 -3
-31 21 -62 -19 -44 -53 24 -27 52 -145 165 -229 218 -14 9 -47 37 -75 63 -27
25 -53 46 -58 46 -4 0 -20 11 -35 25 -34 32 -83 55 -115 55 -14 0 -38 6 -54
13 -40 16 -120 90 -105 95 13 4 17 22 4 22 -8 0 -52 -34 -109 -86 l-34 -31 41
-7 c23 -3 45 -4 50 -1 5 3 25 -1 44 -9 19 -8 43 -12 54 -9 10 2 39 -1 63 -8
24 -7 51 -11 61 -10 9 1 19 -3 23 -9 3 -6 10 -8 15 -5 5 3 19 -8 31 -25 13
-16 29 -30 37 -30 7 0 27 -14 44 -30 16 -17 34 -28 38 -25 5 3 12 0 17 -8 4
-7 19 -20 34 -29 35 -22 139 -125 139 -138 0 -5 9 -10 21 -10 14 0 19 -5 17
-17 -2 -10 -9 -17 -16 -16 -7 2 -3 -13 9 -36 13 -25 25 -38 34 -35 21 8 42
-17 37 -42 -4 -20 0 -23 28 -22 33 1 69 -30 70 -60 0 -25 52 -94 86 -114 18
-11 34 -24 34 -29 0 -17 83 -45 170 -58 104 -15 190 -38 190 -51 0 -4 39 -8
88 -8 123 1 223 -16 244 -42 l17 -21 11 21 c9 16 21 20 68 21 31 1 47 4 35 6
-13 2 -23 7 -23 11 0 4 97 6 215 4 155 -2 215 0 215 8 0 8 10 9 29 5 16 -3 47
-1 69 5 23 6 69 13 104 16 34 3 66 10 69 16 4 7 28 9 60 6 29 -3 61 -1 69 5
12 7 42 5 101 -6 54 -10 90 -12 101 -6 9 5 45 12 80 15 35 3 77 7 93 9 l30 5
-31 -20 c-17 -11 -47 -21 -67 -22 -27 -2 -36 -7 -32 -17 4 -10 -1 -12 -16 -8
-12 3 -40 -5 -66 -19 -30 -16 -50 -21 -57 -15 -7 6 -27 6 -51 1 -70 -16 -82
-13 -90 23 l-8 32 -4 -28 c-3 -18 -10 -27 -23 -27 -10 0 -22 -4 -25 -10 -3 -5
-36 -10 -73 -10 -47 0 -62 -3 -52 -10 8 -5 23 -7 33 -4 9 3 32 2 50 -2 31 -8
31 -8 -18 -15 -27 -4 -131 -11 -230 -14 -246 -10 -252 -18 -40 -52 84 -13 103
-19 80 -24 -25 -5 -27 -7 -12 -14 12 -5 32 -2 53 9 44 21 74 20 89 -1 11 -14
15 -15 28 -4 10 7 36 11 64 10 27 -1 54 0 60 4 6 4 19 4 30 0 16 -6 16 -5 4
10 -12 15 -12 19 5 32 22 16 48 20 39 5 -3 -5 3 -10 14 -10 28 0 26 -10 -6
-36 -16 -12 -24 -26 -20 -30 4 -5 11 -3 15 3 12 18 91 26 98 10 7 -19 74 -14
89 7 15 19 25 11 25 -21 0 -13 6 -23 14 -23 20 0 27 27 10 41 -8 6 -12 20 -9
29 4 14 1 16 -20 12 -15 -2 -25 0 -25 7 0 7 -4 9 -10 6 -5 -3 -10 0 -10 8 0
18 -48 31 -64 18 -6 -5 -18 -6 -25 -2 -7 5 -23 6 -35 3 -11 -3 -18 -1 -14 3 4
5 27 12 50 16 24 4 70 14 103 23 37 9 64 11 69 5 6 -5 2 -9 -12 -9 -12 0 -22
-3 -22 -8 0 -8 156 -5 210 4 30 6 32 8 15 15 -13 5 -2 6 30 3 28 -4 54 -10 59
-14 10 -10 36 -2 36 11 0 5 -11 9 -25 9 -33 0 -31 11 6 32 17 10 27 22 24 28
-3 6 2 13 12 17 10 4 23 14 30 22 11 14 12 14 13 -1 0 -27 36 -10 63 31 14 20
27 57 31 81 l6 45 -13 -33 c-7 -18 -16 -30 -20 -26 -12 12 -8 41 7 53 26 22
43 153 26 207 -7 25 -8 23 -9 -22 -1 -50 -2 -52 -31 -56 -16 -3 -30 -1 -30 3
0 14 -41 17 -47 3 -7 -19 -23 -18 -23 1 0 9 -10 19 -22 24 -29 11 -35 6 -18
-14 8 -10 9 -15 1 -15 -6 0 -11 -12 -11 -27 0 -16 -7 -41 -15 -57 -8 -15 -15
-36 -15 -46 0 -23 -28 -32 -107 -35 -42 -2 -63 1 -63 9 0 6 -5 3 -11 -6 -10
-19 -54 -25 -63 -9 -10 16 6 42 31 52 13 5 21 14 18 19 -4 6 -11 8 -16 5 -5
-4 -14 -3 -20 0 -13 9 81 102 118 116 41 16 15 31 -32 18 -39 -11 -194 -80
-267 -119 -40 -21 -88 -27 -88 -10 0 15 -72 0 -85 -17 -6 -8 -25 -15 -42 -15
-18 -1 -34 -7 -38 -16 -4 -10 -14 -12 -40 -8 -22 4 -35 3 -35 -4 0 -5 -7 -10
-15 -10 -12 0 -14 7 -9 28 7 24 5 26 -9 14 -21 -18 -33 -72 -17 -82 14 -9 -31
-40 -59 -40 -11 0 -23 -5 -26 -10 -3 -6 -21 -10 -40 -10 -19 0 -62 -6 -97 -14
-35 -8 -79 -14 -98 -12 -29 2 -35 6 -33 24 2 12 -2 22 -9 22 -23 0 -48 32 -38
50 5 9 7 26 4 37 -5 18 -10 20 -37 12 -18 -5 -47 -24 -64 -43 -18 -19 -46 -37
-63 -41 -16 -4 -32 -11 -35 -16 -4 -5 -27 -9 -52 -9 -37 0 -44 3 -39 16 3 9 6
24 6 35 0 11 7 19 16 19 10 0 14 6 11 15 -4 8 -2 17 4 20 5 4 7 23 5 43 -3 20
-5 40 -5 45 -1 11 -39 8 -47 -4 -3 -6 -1 -16 5 -22 6 -6 11 -16 11 -22 0 -12
-47 -35 -72 -35 -10 0 -18 -4 -18 -8 0 -4 -13 -13 -30 -19 -32 -12 -41 -33
-14 -33 9 0 29 10 46 21 l30 22 -7 -24 c-4 -13 -13 -28 -19 -32 -13 -9 -72 -4
-100 8 -16 7 -18 5 -14 -18 4 -22 3 -25 -8 -16 -21 18 -17 49 9 58 37 14 50
36 37 61 -11 20 -9 21 22 18 24 -2 33 1 34 12 1 8 2 20 3 26 1 15 75 54 102
54 17 0 18 3 8 21 -46 87 -23 108 82 72 41 -13 78 -28 84 -32 19 -14 117 -42
131 -37 20 8 12 95 -9 108 -26 14 -21 36 7 31 24 -5 45 23 29 37 -14 13 -281
70 -326 70 -20 0 -20 0 -1 15 18 14 17 16 -23 53 -24 21 -43 44 -43 50 0 7 -7
12 -15 12 -8 0 -15 7 -15 15 0 13 9 15 50 9 34 -4 55 -3 65 6 21 18 1 40 -36
40 -21 0 -27 4 -23 15 13 34 -28 26 -94 -17 -102 -68 -126 -78 -186 -78 -32 0
-77 -9 -107 -20 -62 -25 -75 -21 -94 24 -8 19 -27 45 -43 58 -16 12 -36 39
-44 58 -9 19 -25 56 -37 82 -25 56 -26 71 -6 88 8 7 15 19 15 26 0 8 5 14 11
14 8 0 7 5 -1 15 -8 10 -14 51 -16 106 -2 93 -6 110 -20 87z m606 -470 c0 -13
-43 -6 -47 8 -2 7 6 10 22 7 14 -3 25 -10 25 -15z m-477 -89 c10 -11 16 -23
13 -27 -7 -6 -46 27 -46 40 0 14 15 9 33 -13z m88 -152 c-13 -13 -26 -3 -16
12 3 6 11 8 17 5 6 -4 6 -10 -1 -17z m243 -86 c3 -5 0 -11 -8 -14 -15 -6 -26
1 -26 15 0 11 27 10 34 -1z m111 -91 c3 -6 -1 -7 -9 -4 -18 7 -21 14 -7 14 6
0 13 -4 16 -10z m1275 -205 c0 -8 -12 -17 -27 -20 -40 -9 -101 -22 -160 -36
-53 -13 -76 -8 -56 12 13 13 74 27 151 36 29 3 55 9 58 14 9 15 34 10 34 -6z
m-450 -25 c0 -5 -5 -10 -11 -10 -5 0 -7 5 -4 10 3 6 8 10 11 10 2 0 4 -4 4
-10z m-1235 -12 c26 -12 34 -28 13 -28 -7 0 -31 9 -53 19 -37 18 -38 19 -13
20 15 1 39 -4 53 -11z m1925 -53 c0 -8 -80 -41 -118 -48 -29 -6 -31 -5 -18 8
8 8 24 15 35 15 12 0 21 5 21 11 0 5 4 7 10 4 5 -3 18 -1 27 4 19 11 43 14 43
6z m-940 -55 c0 -5 -7 -10 -15 -10 -8 0 -15 5 -15 10 0 6 7 10 15 10 8 0 15
-4 15 -10z m767 -56 c-3 -3 -12 -4 -19 -1 -8 3 -5 6 6 6 11 1 17 -2 13 -5z
m-230 -80 c-3 -3 -12 -4 -19 -1 -8 3 -5 6 6 6 11 1 17 -2 13 -5z m-134 -21
c-4 -9 -24 -13 -67 -12 l-61 1 55 12 c72 15 79 15 73 -1z m237 -7 c0 -11 -19
-15 -25 -6 -3 5 1 10 9 10 9 0 16 -2 16 -4z"/>
<path d="M3210 2111 c0 -5 6 -14 14 -20 11 -9 15 -8 20 5 9 23 8 24 -14 24
-11 0 -20 -4 -20 -9z"/>
<path d="M3158 2103 c6 -2 18 -2 25 0 6 3 1 5 -13 5 -14 0 -19 -2 -12 -5z"/>
<path d="M4811 2091 c-6 -11 -11 -38 -11 -61 0 -24 -6 -48 -16 -57 -10 -11
-14 -25 -9 -42 3 -14 7 -35 8 -46 4 -35 17 -45 59 -45 32 0 39 3 34 15 -16 42
35 62 66 26 11 -13 24 -18 38 -14 26 7 72 50 90 83 14 26 3 39 -55 66 -16 8
-37 18 -45 23 -43 23 -61 31 -75 31 -8 0 -15 5 -15 11 0 7 -10 9 -26 5 -16 -4
-23 -3 -20 3 4 5 2 12 -3 16 -6 3 -15 -3 -20 -14z"/>
<path d="M3030 2080 c0 -5 5 -10 11 -10 5 0 7 5 4 10 -3 6 -8 10 -11 10 -2 0
-4 -4 -4 -10z"/>
<path d="M3096 2051 c-47 -14 -62 -23 -68 -42 -7 -22 -14 -24 -70 -26 -77 -3
-104 -11 -89 -26 6 -6 11 -19 11 -29 0 -23 38 -44 53 -29 6 6 19 11 29 11 10
0 18 5 18 10 0 6 -10 10 -21 10 -18 0 -19 2 -9 15 7 8 25 15 40 15 18 0 31 8
40 24 7 14 18 22 25 20 7 -3 38 2 69 11 42 12 56 21 54 33 -4 22 -15 22 -82 3z"/>
<path d="M3636 2045 c-19 -8 -40 -10 -58 -5 -15 5 -30 5 -33 -1 -3 -4 -26 -8
-50 -7 -47 2 -68 -8 -46 -22 9 -5 22 -3 33 3 15 9 20 9 27 -2 5 -7 10 -9 12
-3 6 15 41 19 46 6 2 -7 -3 -19 -12 -27 -16 -17 -20 -37 -6 -37 5 0 14 7 21
15 7 8 18 15 24 15 16 1 89 67 79 73 -4 2 -21 -1 -37 -8z"/>
<path d="M4300 2036 c-25 -7 -72 -18 -105 -24 -51 -9 -181 -48 -194 -59 -2 -2
-2 -6 1 -9 4 -3 39 4 80 15 48 13 87 18 116 14 34 -5 42 -3 42 10 0 11 13 18
38 23 20 4 55 15 77 25 34 15 36 18 15 18 -14 0 -45 -6 -70 -13z"/>
<path d="M3233 2033 c-19 -2 -33 -10 -33 -17 0 -8 -9 -16 -20 -19 -33 -9 -23
-24 21 -30 24 -3 55 0 77 9 l37 14 -37 -5 c-42 -6 -61 10 -23 19 14 4 25 13
25 21 0 8 -3 14 -7 13 -5 0 -23 -3 -40 -5z"/>
<path d="M3070 1975 c-49 -18 -48 -31 2 -27 38 4 101 32 71 32 -6 0 -17 2 -25
4 -7 2 -29 -2 -48 -9z"/>
<path d="M5713 1967 c-21 -26 -76 -67 -92 -67 -26 0 -185 -65 -210 -86 -16
-13 -31 -37 -34 -54 -4 -16 -13 -30 -21 -30 -20 0 -27 -27 -10 -40 11 -10 17
-10 29 0 8 7 15 8 15 3 0 -5 37 -10 83 -10 80 -1 144 18 162 47 3 5 14 10 24
10 10 0 26 9 36 20 10 11 31 20 47 20 16 0 55 9 87 20 47 15 65 17 95 9 46
-13 66 -6 66 21 0 14 15 27 50 45 28 14 50 27 50 30 0 6 -148 -3 -171 -10 -10
-3 -21 0 -26 8 -11 20 -47 37 -76 37 -14 0 -28 7 -31 16 -4 10 -13 13 -26 9
-15 -5 -18 -3 -14 9 9 24 -12 19 -33 -7z m-178 -227 c-3 -5 -10 -10 -16 -10
-5 0 -9 5 -9 10 0 6 7 10 16 10 8 0 12 -4 9 -10z"/>
<path d="M2720 1931 c0 -5 7 -11 15 -15 9 -3 15 0 15 9 0 8 -7 15 -15 15 -8 0
-15 -4 -15 -9z"/>
<path d="M2818 1932 c-22 -4 -23 -18 -2 -26 9 -4 14 -13 10 -21 -3 -10 1 -15
13 -15 13 0 18 8 19 29 1 31 -11 40 -40 33z"/>
<path d="M3905 1910 c-10 -11 -16 -22 -13 -25 5 -6 48 29 48 39 0 12 -17 6
-35 -14z"/>
<path d="M4540 1920 c-13 -8 -12 -10 3 -10 9 0 17 5 17 10 0 12 -1 12 -20 0z"/>
<path d="M3435 1910 c-3 -6 1 -7 9 -4 18 7 21 14 7 14 -6 0 -13 -4 -16 -10z"/>
<path d="M3395 1890 c-3 -5 -2 -10 4 -10 5 0 13 5 16 10 3 6 2 10 -4 10 -5 0
-13 -4 -16 -10z"/>
<path d="M2770 1880 c0 -5 5 -10 11 -10 5 0 7 5 4 10 -3 6 -8 10 -11 10 -2 0
-4 -4 -4 -10z"/>
<path d="M3010 1875 c-36 -8 -78 -21 -95 -29 -102 -49 -167 -70 -254 -81 -53
-7 -116 -20 -141 -28 -25 -8 -64 -18 -87 -22 -24 -4 -45 -11 -49 -16 -3 -5
-13 -9 -23 -9 -10 0 -52 -11 -94 -25 -41 -13 -105 -30 -141 -36 -36 -7 -66
-16 -66 -21 0 -5 -6 -8 -13 -6 -17 4 -127 -34 -127 -45 0 -4 -4 -6 -9 -3 -5 3
-26 -1 -47 -10 -22 -9 -48 -18 -59 -19 -23 -3 -115 -36 -165 -58 -19 -9 -116
-51 -215 -92 -99 -42 -196 -85 -215 -96 -63 -34 -333 -130 -485 -173 -44 -13
-87 -26 -95 -29 -34 -12 -120 -37 -205 -57 -49 -13 -94 -27 -99 -31 -6 -5 -19
-9 -30 -9 -10 0 -42 -7 -70 -15 -28 -8 -90 -26 -138 -41 l-88 -25 0 -114 c0
-118 7 -139 38 -112 9 8 27 18 40 21 24 8 29 21 10 30 -7 3 1 4 17 2 17 -1 24
-1 17 1 -16 6 -16 33 1 33 7 0 19 -9 27 -20 21 -29 38 -25 77 16 26 28 31 39
22 45 -20 12 -7 19 40 22 29 1 43 7 47 20 7 21 18 22 34 2 16 -20 60 -20 60 0
0 8 -6 15 -14 15 -18 0 -29 17 -21 30 5 8 12 7 22 -2 12 -10 17 -9 24 2 22 38
25 40 55 32 43 -11 74 -4 74 18 0 10 -4 22 -10 25 -5 3 -10 12 -9 18 0 9 2 9
6 0 2 -7 13 -13 23 -13 10 0 22 -5 25 -10 5 -8 11 -7 21 1 8 6 14 8 14 3 0 -5
29 -7 65 -6 44 3 63 7 58 15 -4 6 0 8 9 4 20 -7 78 40 78 63 0 20 30 36 30 17
0 -7 9 -1 20 13 l20 25 19 -24 c18 -24 41 -22 41 4 0 19 46 49 65 41 8 -3 15
-2 15 3 0 13 48 31 65 25 8 -4 21 -2 28 4 6 6 29 13 50 17 32 6 36 9 25 23
-11 13 -9 14 19 10 18 -2 30 -1 27 4 -3 4 -12 8 -20 8 -8 0 -14 5 -14 11 0 7
9 9 21 6 29 -8 64 10 80 42 13 26 13 26 17 4 2 -15 10 -23 23 -23 15 0 19 7
19 30 0 29 2 31 33 25 24 -5 39 -1 57 14 14 11 30 24 35 29 19 15 90 29 110
21 11 -4 14 -8 8 -8 -7 -1 -13 -5 -13 -11 0 -15 40 -12 56 5 39 38 88 25 96
-25 2 -16 11 -24 30 -26 21 -2 36 7 68 42 22 24 44 44 48 44 12 0 92 86 92 99
0 6 9 11 19 11 11 0 26 7 34 15 8 8 39 19 68 24 30 5 81 16 114 26 33 9 79 15
103 13 31 -2 41 0 37 9 -3 10 12 13 60 13 35 0 74 4 87 9 13 4 40 11 62 15 37
7 38 6 32 -17 -6 -24 -5 -24 37 -13 23 6 44 14 47 18 6 8 43 4 59 -7 5 -3 12
-1 16 5 3 5 19 10 35 10 16 0 52 5 82 11 29 6 63 13 76 15 12 2 22 11 22 19 0
9 15 17 38 20 61 11 72 16 72 32 0 13 -9 15 -51 10 -37 -5 -49 -3 -46 6 2 7
17 13 33 15 16 2 33 8 39 13 5 5 31 9 57 9 41 0 48 3 46 17 -2 11 7 20 27 26
39 13 135 56 135 61 0 2 -19 3 -42 3 -24 0 -88 2 -143 6 -73 5 -118 3 -165 -8z
m-50 -165 c0 -5 -5 -10 -11 -10 -5 0 -7 5 -4 10 3 6 8 10 11 10 2 0 4 -4 4
-10z m-380 -54 c0 -3 -4 -8 -10 -11 -5 -3 -10 -1 -10 4 0 6 5 11 10 11 6 0 10
-2 10 -4z m-920 -261 c-27 -14 -36 -13 -25 4 3 6 16 11 28 11 21 -1 21 -1 -3
-15z m-1200 -445 c0 -5 -2 -10 -4 -10 -3 0 -8 5 -11 10 -3 6 -1 10 4 10 6 0
11 -4 11 -10z"/>
<path d="M3853 1855 c-7 -8 -21 -18 -30 -24 -10 -5 -15 -13 -10 -17 4 -4 16 1
27 11 17 15 25 17 39 8 24 -15 33 -6 18 18 -14 22 -27 24 -44 4z"/>
<path d="M3258 1764 c-3 -3 -27 -8 -54 -12 -26 -4 -49 -12 -51 -18 -3 -8 31
-11 114 -11 65 1 129 -3 142 -7 18 -6 22 -5 19 5 -3 9 -23 15 -53 17 -27 2
-58 10 -69 18 -21 15 -39 18 -48 8z"/>
<path d="M3448 1713 c6 -2 18 -2 25 0 6 3 1 5 -13 5 -14 0 -19 -2 -12 -5z"/>
<path d="M3505 1700 c11 -5 36 -8 55 -8 l35 0 -30 8 c-16 4 -41 8 -55 8 -23 1
-23 0 -5 -8z"/>
<path d="M6148 1635 c-33 -33 -65 -55 -78 -55 -32 0 -175 -47 -240 -78 -48
-24 -55 -31 -58 -59 -2 -19 1 -33 7 -33 6 0 11 -7 11 -15 0 -15 34 -38 43 -29
2 3 29 -1 58 -10 30 -8 95 -17 144 -21 54 -4 107 -14 134 -26 24 -10 48 -19
54 -19 16 0 -46 59 -62 60 -11 0 -12 3 -4 11 6 6 39 11 74 12 l64 2 0 -34 c0
-19 6 -36 13 -38 6 -3 12 -15 12 -28 0 -23 33 -54 71 -67 20 -8 79 20 80 38 1
8 2 19 3 24 0 6 7 15 15 19 12 8 12 12 -2 26 -10 9 -17 22 -17 28 0 7 -9 23
-20 37 -11 14 -20 28 -20 33 0 11 118 9 225 -4 88 -11 94 -11 119 8 l26 21
-45 21 c-25 12 -64 29 -85 37 l-39 16 15 29 c8 17 26 34 39 39 26 10 32 24 15
35 -6 4 -7 11 -4 17 9 14 2 12 -146 -42 -141 -51 -188 -54 -248 -16 -24 15
-51 41 -60 57 -35 63 -33 63 -94 4z m-198 -216 c0 -5 -7 -9 -15 -9 -15 0 -20
12 -9 23 8 8 24 -1 24 -14z"/>
<path d="M6930 1606 c0 -2 6 -9 14 -15 10 -9 15 -8 20 4 4 10 -1 15 -14 15
-11 0 -20 -2 -20 -4z"/>
<path d="M3495 1589 c-49 -4 -101 -12 -115 -18 -20 -9 -12 -10 40 -5 58 6 131
10 228 13 17 1 32 4 32 9 0 10 -76 10 -185 1z"/>
<path d="M3235 1580 c3 -5 21 -10 38 -9 31 1 31 1 7 9 -36 11 -52 11 -45 0z"/>
<path d="M2770 1480 c0 -5 11 -10 25 -10 14 0 25 5 25 10 0 6 -11 10 -25 10
-14 0 -25 -4 -25 -10z"/>
<path d="M3920 1390 c14 -10 32 -26 40 -34 8 -9 28 -30 45 -47 45 -46 65 -81
65 -111 0 -16 9 -37 20 -48 12 -12 18 -25 15 -30 -4 -6 2 -10 12 -11 10 0 13
-3 6 -6 -24 -9 -13 -25 15 -22 15 2 33 0 40 -4 17 -11 32 0 32 25 0 19 -49 90
-80 115 -8 7 -11 13 -7 13 18 0 54 -25 94 -66 22 -24 46 -44 51 -44 6 0 13 -9
17 -20 4 -11 21 -23 43 -29 46 -13 54 -5 22 21 -14 11 -50 43 -82 70 -58 52
-164 112 -179 102 -5 -3 -6 1 -4 8 3 8 -17 30 -50 53 -30 22 -55 43 -55 47 0
10 -55 38 -72 38 -7 -1 -2 -9 12 -20z"/>
<path d="M3358 1363 c12 -2 30 -2 40 0 9 3 -1 5 -23 4 -22 0 -30 -2 -17 -4z"/>
<path d="M6880 1360 c0 -5 6 -10 14 -10 8 0 18 5 21 10 3 6 -3 10 -14 10 -12
0 -21 -4 -21 -10z"/>
<path d="M3468 1353 c7 -3 16 -2 19 1 4 3 -2 6 -13 5 -11 0 -14 -3 -6 -6z"/>
<path d="M3593 1345 c8 -20 -14 -25 -44 -9 -33 17 -65 0 -35 -19 44 -28 113
-68 136 -78 77 -33 129 -62 125 -70 -3 -4 8 -15 24 -24 17 -8 41 -25 55 -38
19 -18 37 -23 78 -24 29 -1 57 1 62 4 7 5 -41 39 -84 60 -8 4 -36 22 -62 40
-26 18 -52 33 -58 33 -5 0 -10 4 -10 9 0 13 -129 109 -164 121 -23 8 -27 7
-23 -5z m304 -231 c-3 -3 -12 -4 -19 -1 -8 3 -5 6 6 6 11 1 17 -2 13 -5z"/>
<path d="M6800 1350 c0 -5 9 -10 19 -10 11 0 23 5 26 10 4 6 -5 10 -19 10 -14
0 -26 -4 -26 -10z"/>
<path d="M3175 1150 c-38 -5 -81 -12 -94 -18 -22 -8 -19 -10 25 -14 27 -3 117
-3 199 1 l150 6 -72 18 c-76 18 -97 19 -208 7z"/>
<path d="M2359 1036 c-10 -10 -66 -19 -108 -17 -26 1 -50 -4 -60 -13 -9 -8
-29 -26 -44 -40 -15 -14 -34 -26 -42 -26 -8 0 -15 -7 -15 -16 0 -8 -4 -13 -9
-9 -5 3 -12 1 -15 -4 -9 -13 -96 -61 -112 -61 -17 0 -18 -17 -2 -22 7 -3 11
-18 10 -37 -2 -32 -2 -32 65 36 83 84 105 98 166 107 62 9 72 -11 28 -56 -31
-32 -38 -52 -23 -62 12 -7 53 24 47 35 -6 9 0 11 40 13 13 1 19 7 17 18 -1 9
6 19 17 23 12 4 18 12 14 21 -7 19 17 18 31 -1 8 -11 18 -13 41 -6 25 8 26 9
8 10 -13 1 -23 6 -23 11 0 6 31 10 73 11 97 1 151 17 155 48 l4 23 -120 -7
c-105 -6 -121 -5 -129 9 -5 9 -11 14 -14 12z m-42 -112 c-3 -3 -12 -4 -19 -1
-8 3 -5 6 6 6 11 1 17 -2 13 -5z"/>
<path d="M2735 974 c-11 -8 -19 -22 -17 -30 2 -9 -4 -21 -14 -28 -16 -12 -16
-13 0 -19 18 -7 56 24 56 47 0 8 7 22 16 30 14 15 14 16 -3 16 -10 0 -27 -7
-38 -16z"/>
<path d="M2825 979 c-4 -6 -4 -13 -1 -16 8 -8 36 5 36 17 0 13 -27 13 -35 -1z"/>
<path d="M4557 974 c2 -7 11 -10 19 -7 19 7 18 10 -5 16 -13 3 -18 1 -14 -9z"/>
<path d="M4600 960 c0 -5 6 -10 14 -10 8 0 23 -3 33 -7 16 -6 16 -5 4 10 -15
18 -51 23 -51 7z"/>
<path d="M3218 933 c12 -2 32 -2 45 0 12 2 2 4 -23 4 -25 0 -35 -2 -22 -4z"/>
<path d="M2650 923 c1 -18 18 -35 24 -24 4 6 4 16 1 21 -7 12 -25 13 -25 3z"/>
<path d="M3128 903 c7 -3 16 -2 19 1 4 3 -2 6 -13 5 -11 0 -14 -3 -6 -6z"/>
<path d="M2343 882 c-7 -5 -9 -13 -4 -21 7 -11 11 -9 20 8 12 21 6 27 -16 13z"/>
<path d="M3825 879 c-16 -6 -14 -8 13 -8 33 -1 41 4 20 12 -7 2 -22 1 -33 -4z"/>
<path d="M3008 873 c6 -2 18 -2 25 0 6 3 1 5 -13 5 -14 0 -19 -2 -12 -5z"/>
<path d="M4875 850 c-3 -6 1 -7 9 -4 18 7 21 14 7 14 -6 0 -13 -4 -16 -10z"/>
<path d="M2385 830 c-3 -5 -1 -10 4 -10 6 0 11 5 11 10 0 6 -2 10 -4 10 -3 0
-8 -4 -11 -10z"/>
<path d="M5540 830 c0 -5 19 -10 43 -9 36 1 38 2 17 9 -36 12 -60 12 -60 0z"/>
<path d="M2153 801 c-12 -19 -8 -31 10 -31 5 0 7 6 4 14 -3 7 0 19 6 25 6 6 7
11 1 11 -5 0 -15 -9 -21 -19z"/>
<path d="M2447 804 c-14 -14 -7 -25 13 -22 12 2 21 8 21 13 0 12 -24 18 -34 9z"/>
<path d="M5858 803 c7 -3 16 -2 19 1 4 3 -2 6 -13 5 -11 0 -14 -3 -6 -6z"/>
<path d="M2662 783 c2 -10 11 -19 21 -21 24 -5 21 15 -4 28 -18 10 -20 9 -17
-7z"/>
<path d="M5450 790 c20 -13 40 -13 40 0 0 6 -12 10 -27 10 -22 0 -25 -2 -13
-10z"/>
<path d="M1828 783 c-16 -2 -28 -10 -28 -16 0 -7 -13 -18 -28 -25 -16 -6 -38
-21 -50 -33 -12 -11 -27 -17 -34 -13 -8 5 -9 2 -5 -9 3 -10 2 -17 -3 -17 -5 0
-21 -5 -37 -11 -15 -6 -30 -11 -33 -11 -3 0 -11 -9 -18 -19 -8 -12 -25 -19
-43 -19 -26 0 -29 -3 -24 -21 5 -15 4 -19 -4 -15 -6 4 -27 2 -47 -4 -28 -10
-35 -16 -31 -32 5 -18 4 -19 -12 -4 -16 15 -19 15 -31 1 -9 -11 -23 -14 -44
-10 -27 4 -28 4 -8 -5 12 -5 22 -13 22 -19 0 -5 -10 -11 -22 -14 -67 -17 -127
-44 -117 -54 16 -16 -8 -28 -26 -13 -11 9 -22 8 -50 -6 -20 -9 -32 -20 -26
-24 17 -10 -55 -40 -95 -40 -28 0 -37 -5 -41 -20 -4 -15 -11 -19 -24 -15 -13
4 -19 1 -19 -9 0 -17 -80 -56 -114 -56 -18 0 -19 -2 -6 -11 11 -8 7 -9 -17 -5
-25 4 -33 2 -33 -9 0 -15 -16 -21 -88 -29 -24 -2 -51 -11 -60 -19 -9 -8 -28
-18 -41 -22 -14 -4 -34 -16 -45 -27 -13 -11 -30 -18 -43 -15 -13 2 -23 0 -23
-5 0 -5 -9 -4 -20 2 -17 9 -28 7 -56 -10 -19 -12 -50 -22 -68 -23 -23 -1 -36
-7 -42 -21 -7 -15 -23 -23 -61 -29 -110 -18 -48 -27 175 -27 210 0 229 2 252
20 14 11 19 20 12 20 -7 0 -10 5 -6 11 3 6 17 8 30 5 25 -7 34 8 12 18 -8 4
-9 8 -3 11 6 3 89 48 185 100 95 52 175 95 177 95 1 0 69 40 150 88 81 49 168
100 193 114 77 43 314 188 320 196 3 4 12 12 21 17 59 37 129 86 129 90 0 5
-6 5 -52 -2z"/>
<path d="M5615 769 c24 -16 75 -21 75 -8 0 5 -6 9 -14 9 -7 0 -29 3 -47 6 -30
5 -32 4 -14 -7z"/>
<path d="M2206 747 c-11 -40 -7 -50 15 -44 19 5 20 2 15 -21 -4 -15 -8 -34
-10 -44 -1 -9 -7 -22 -13 -30 -7 -7 -13 -27 -16 -43 -2 -16 -9 -31 -15 -33
-12 -4 -17 22 -13 62 1 16 -1 17 -14 6 -8 -7 -15 -25 -15 -41 0 -16 -4 -29
-10 -29 -5 0 -10 9 -10 20 0 26 -19 26 -28 -1 -8 -21 -8 -21 -24 3 -16 24 -15
26 22 64 29 29 39 47 40 72 0 17 -4 32 -10 32 -5 0 -10 -6 -10 -14 0 -7 -7
-19 -16 -26 -12 -11 -18 -11 -30 2 -14 14 -14 17 0 31 14 14 11 15 -36 14 -61
-3 -67 -13 -60 -103 3 -44 1 -64 -10 -75 -24 -23 -38 -56 -32 -72 3 -8 -6 -48
-20 -89 -15 -42 -22 -74 -16 -76 16 -6 12 -22 -5 -22 -9 0 -15 -9 -15 -24 0
-14 -7 -32 -16 -41 -12 -11 -14 -19 -6 -27 7 -7 3 -24 -13 -57 -22 -44 -55
-126 -55 -136 0 -3 90 -5 200 -5 190 0 200 1 210 20 6 12 8 30 5 40 -8 24 7
26 25 4 12 -13 15 -11 27 18 11 24 16 29 23 19 10 -17 4 -36 -22 -73 l-19 -28
123 0 c89 1 118 3 105 11 -9 6 -26 9 -36 7 -10 -2 -17 2 -17 7 1 6 7 10 15 10
8 0 16 6 19 13 2 7 -5 12 -17 12 -29 0 -26 14 5 29 15 6 23 17 20 24 -3 6 -9
20 -12 30 -4 9 -13 17 -20 17 -8 0 -14 7 -14 16 0 13 3 14 14 5 13 -11 46 -5
46 8 0 4 -5 12 -11 18 -9 9 -2 16 26 27 21 9 40 14 43 11 3 -3 0 -5 -6 -5 -7
0 -12 -5 -12 -11 0 -19 20 2 41 43 17 33 18 42 7 49 -21 13 -38 10 -32 -5 4
-12 -4 -15 -36 -14 -48 0 -54 -4 -55 -39 0 -36 -27 -51 -60 -33 -22 12 -26 19
-21 42 4 21 2 28 -9 28 -8 0 -15 5 -15 10 0 6 7 10 15 10 8 0 15 6 15 14 0 7
10 20 23 29 17 11 19 18 11 27 -17 18 15 70 42 70 13 0 24 8 27 20 3 11 12 20
20 20 21 0 28 26 15 54 l-11 24 -26 -24 c-14 -13 -32 -22 -38 -19 -7 2 -13 0
-13 -5 0 -13 -41 -23 -51 -13 -6 6 -4 15 6 23 20 17 19 33 -5 55 -20 18 -21
18 -35 -1 -8 -10 -22 -34 -31 -53 -23 -48 -37 -26 -20 33 8 26 19 53 26 61 9
11 7 16 -9 25 -25 13 -27 38 -6 47 25 9 -12 45 -39 37 -15 -4 -17 -3 -8 4 11
8 11 10 -1 15 -10 4 -17 -2 -21 -16z m-166 -111 c0 -3 -4 -8 -10 -11 -5 -3
-10 -1 -10 4 0 6 5 11 10 11 6 0 10 -2 10 -4z m-2 -209 c-3 -30 0 -37 12 -35
8 2 17 14 18 28 2 14 8 30 13 35 7 7 8 -9 4 -45 -9 -75 -11 -80 -35 -80 -17 0
-20 -4 -15 -20 4 -13 0 -31 -11 -47 -15 -24 -18 -25 -29 -9 -18 24 -17 119 0
153 8 15 15 42 15 59 0 17 3 34 7 38 12 11 25 -36 21 -77z m312 63 c0 -12 -47
-36 -55 -28 -3 3 -3 13 1 22 7 17 54 23 54 6z m-103 -182 c-3 -8 -6 -5 -6 6
-1 11 2 17 5 13 3 -3 4 -12 1 -19z m-42 -55 c-7 -30 -13 -39 -19 -32 -8 8 6
59 16 59 6 0 7 -11 3 -27z m45 -51 c-6 -2 -10 -10 -10 -18 0 -8 6 -11 15 -8
24 10 18 -28 -10 -54 -31 -29 -46 -21 -38 21 8 46 35 90 45 74 4 -6 3 -13 -2
-15z m-130 -89 c0 -5 -5 -15 -10 -23 -8 -12 -10 -11 -10 8 0 12 5 22 10 22 6
0 10 -3 10 -7z m-40 -88 c0 -8 -4 -15 -10 -15 -5 0 -10 7 -10 15 0 8 5 15 10
15 6 0 10 -7 10 -15z"/>
<path d="M2001 364 c0 -11 3 -14 6 -6 3 7 2 16 -1 19 -3 4 -6 -2 -5 -13z"/>
<path d="M5546 759 c7 -12 66 -39 84 -39 5 0 10 7 10 15 0 9 -9 15 -24 15 -14
0 -28 5 -31 10 -3 6 -15 10 -26 10 -12 0 -17 -4 -13 -11z"/>
<path d="M2400 751 c0 -5 7 -14 15 -21 23 -19 19 -85 -6 -109 -12 -11 -19 -28
-17 -41 3 -20 6 -19 47 19 24 23 54 41 65 41 20 1 20 1 2 15 -10 8 -22 12 -26
10 -8 -5 -40 59 -40 80 0 8 -9 15 -20 15 -11 0 -20 -4 -20 -9z"/>
<path d="M2620 720 c-14 -10 -25 -27 -26 -37 -1 -10 -2 -26 -3 -35 0 -10 -19
-27 -41 -38 -42 -21 -46 -30 -30 -59 7 -14 16 -17 38 -12 29 6 82 43 82 57 0
4 7 16 17 26 15 17 15 18 0 18 -24 0 -21 17 3 25 20 6 26 25 13 39 -5 4 -8 13
-8 19 0 18 -19 17 -45 -3z"/>
<path d="M1940 675 c-5 -51 -4 -115 1 -115 12 0 18 65 10 100 -6 22 -10 28
-11 15z"/>
<path d="M2311 674 c0 -11 3 -14 6 -6 3 7 2 16 -1 19 -3 4 -6 -2 -5 -13z"/>
<path d="M5883 683 c9 -2 23 -2 30 0 6 3 -1 5 -18 5 -16 0 -22 -2 -12 -5z"/>
<path d="M2150 660 c-20 -13 -10 -19 22 -13 15 3 25 9 22 14 -7 12 -25 11 -44
-1z"/>
<path d="M2825 650 c-3 -5 -1 -10 4 -10 6 0 11 5 11 10 0 6 -2 10 -4 10 -3 0
-8 -4 -11 -10z"/>
<path d="M6344 649 c-9 -16 2 -22 21 -11 15 8 16 10 1 15 -8 3 -18 2 -22 -4z"/>
<path d="M5800 640 c0 -6 12 -10 28 -9 15 0 37 -2 50 -6 25 -8 31 9 6 19 -25
10 -84 7 -84 -4z"/>
<path d="M6146 635 c4 -8 10 -12 15 -9 11 6 2 24 -11 24 -5 0 -7 -7 -4 -15z"/>
<path d="M2900 614 c0 -31 23 -28 28 4 2 15 -2 22 -12 22 -11 0 -16 -9 -16
-26z"/>
<path d="M5941 624 c0 -11 3 -14 6 -6 3 7 2 16 -1 19 -3 4 -6 -2 -5 -13z"/>
<path d="M2845 590 c-3 -5 3 -10 14 -10 12 0 21 5 21 10 0 6 -6 10 -14 10 -8
0 -18 -4 -21 -10z"/>
<path d="M6170 565 c-8 -9 -8 -15 -2 -15 12 0 26 19 19 26 -2 2 -10 -2 -17
-11z"/>
<path d="M2510 450 c0 -5 5 -10 10 -10 6 0 10 5 10 10 0 6 -4 10 -10 10 -5 0
-10 -4 -10 -10z"/>
<path d="M2502 377 c-43 -46 -16 -52 30 -7 25 26 27 30 11 30 -11 0 -29 -10
-41 -23z"/>
<path d="M2546 363 c-4 -9 -3 -20 2 -25 11 -11 47 16 38 30 -11 17 -33 15 -40
-5z"/>
<path d="M2395 321 c3 -2 -3 -10 -13 -17 -14 -11 -14 -13 -2 -14 17 0 51 20
35 20 -5 0 -3 5 5 10 12 7 10 9 -7 7 -12 0 -20 -3 -18 -6z"/>
<path d="M2690 275 c0 -12 7 -15 25 -13 14 2 26 8 26 13 0 6 -12 11 -26 13
-18 2 -25 -1 -25 -13z"/>
<path d="M3006 252 c-2 -4 4 -13 15 -20 16 -11 19 -9 19 8 0 19 -24 28 -34 12z"/>
<path d="M2480 199 c0 -5 5 -7 10 -4 6 3 10 8 10 11 0 2 -4 4 -10 4 -5 0 -10
-5 -10 -11z"/>
<path d="M2800 155 c0 -9 6 -12 15 -9 8 4 12 10 9 15 -8 14 -24 10 -24 -6z"/>
<path d="M2668 153 c7 -3 16 -2 19 1 4 3 -2 6 -13 5 -11 0 -14 -3 -6 -6z"/>
<path d="M2920 145 c0 -9 5 -15 11 -13 6 2 11 8 11 13 0 5 -5 11 -11 13 -6 2
-11 -4 -11 -13z"/>
<path d="M3026 151 c-4 -7 -5 -15 -2 -18 9 -9 19 4 14 18 -4 11 -6 11 -12 0z"/>
<path d="M2775 120 c-3 -5 1 -10 9 -10 9 0 16 5 16 10 0 6 -4 10 -9 10 -6 0
-13 -4 -16 -10z"/>
<path d="M3036 93 c-3 -8 -6 -23 -6 -34 0 -10 -7 -19 -15 -19 -8 0 -15 9 -15
20 0 11 -4 20 -10 20 -5 0 -10 -6 -10 -14 0 -9 -12 -16 -27 -18 -20 -2 -29 -9
-31 -26 -4 -24 20 -30 47 -13 9 6 22 6 35 -1 15 -8 22 -7 33 8 8 11 11 29 8
41 -4 18 0 24 20 29 32 8 32 19 1 20 -14 1 -27 -5 -30 -13z"/>
<path d="M2800 80 c0 -14 -5 -20 -17 -18 -12 2 -19 -5 -21 -21 -3 -19 0 -22
13 -17 9 3 19 6 21 6 2 0 4 6 4 14 0 14 27 31 43 27 5 -1 7 4 5 11 -3 7 -14
14 -26 16 -17 3 -22 -2 -22 -18z"/>
<path d="M2578 73 c7 -3 16 -2 19 1 4 3 -2 6 -13 5 -11 0 -14 -3 -6 -6z"/>
<path d="M2719 58 c-6 -20 -2 -58 6 -58 7 0 10 12 7 30 -4 25 -9 38 -13 28z"/>
<path d="M2576 15 c-3 -9 0 -15 9 -15 16 0 20 16 6 24 -5 3 -11 -1 -15 -9z"/>
<path d="M2847 24 c-13 -13 -7 -24 14 -24 11 0 19 5 17 12 -5 14 -22 21 -31
12z"/>
<path d="M3180 10 c0 -5 10 -10 23 -10 18 0 19 2 7 10 -19 13 -30 13 -30 0z"/>
</g>
</svg>
